<?xml version="1.0" encoding="utf-8"?>
<!-- Generator: Adobe Illustrator 16.0.0, SVG Export Plug-In . SVG Version: 6.00 Build 0)  -->
<!DOCTYPE svg PUBLIC "-//W3C//DTD SVG 1.1//EN" "http://www.w3.org/Graphics/SVG/1.1/DTD/svg11.dtd">
<svg version="1.1" id="Calque_1" xmlns="http://www.w3.org/2000/svg" xmlns:xlink="http://www.w3.org/1999/xlink" x="0px" y="0px"
	 width="425.201px" height="425.201px" viewBox="0 0 425.201 425.201" enable-background="new 0 0 425.201 425.201"
	 xml:space="preserve">
<g display="none">
	<path display="inline" d="M416.896,8.304v135.45h-135.45V8.304H416.896 M421.879,0H276.464c-1.827,0-3.322,1.495-3.322,3.322
		v145.415c0,1.827,1.495,3.322,3.322,3.322h145.415c1.827,0,3.322-1.495,3.322-3.322V3.322C425.201,1.495,423.706,0,421.879,0
		L421.879,0z"/>
</g>
<g>
	<g>
		<path stroke="#000000" stroke-miterlimit="10" d="M320.909,99.213H104.164c-2.723,0-4.952,2.229-4.952,4.952v216.868
			c0,2.724,2.229,4.952,4.952,4.952h216.868c2.724,0,4.952-2.229,4.952-4.952V104.164C325.86,101.441,323.632,99.213,320.909,99.213
			z M313.482,313.604H111.591V111.591h201.891V313.604z"/>
	</g>
</g>
<g display="none">
	<g display="inline">
		<path d="M235.521,128.473c-0.748,0.665-1.91,0.665-2.657-0.083c-8.555-9.135-22.922-9.633-32.057-1.079
			c-0.747,0.664-1.91,0.664-2.657-0.083c-0.665-0.748-0.665-1.91,0.083-2.658c10.63-9.965,27.405-9.384,37.288,1.329
			C236.351,126.563,236.268,127.809,235.521,128.473z"/>
		<path d="M246.151,118.591c-0.747,0.665-1.91,0.665-2.657-0.083c-13.952-15.031-37.537-15.778-52.569-1.826
			c-0.747,0.664-1.91,0.664-2.657-0.084c-0.664-0.747-0.664-1.909,0.083-2.657c16.526-15.363,42.438-14.45,57.801,1.993
			C246.981,116.681,246.898,117.927,246.151,118.591z"/>
		<path d="M256.283,109.124c-0.748,0.664-1.91,0.664-2.657-0.083c-19.185-20.596-51.489-21.676-72.085-2.491
			c-0.748,0.664-1.91,0.664-2.658-0.083c-0.664-0.748-0.664-1.91,0.084-2.658c22.09-20.596,56.804-19.35,77.316,2.741
			C257.03,107.297,257.03,108.46,256.283,109.124z"/>
	</g>
	<g display="inline">
		<path d="M232.864,285.681c-0.748-0.664-1.91-0.664-2.658,0.083c-8.554,9.135-22.921,9.634-32.056,1.08
			c-0.748-0.665-1.91-0.665-2.658,0.083c-0.664,0.747-0.664,1.91,0.084,2.657c10.63,9.966,27.405,9.384,37.288-1.329
			C233.611,287.592,233.611,286.345,232.864,285.681z"/>
		<path d="M243.411,295.564c-0.748-0.665-1.91-0.665-2.658,0.083c-13.951,15.031-37.537,15.778-52.568,1.827
			c-0.747-0.665-1.91-0.665-2.657,0.083c-0.665,0.747-0.665,1.91,0.083,2.657c16.526,15.363,42.437,14.45,57.801-1.993
			C244.241,297.474,244.158,296.228,243.411,295.564z"/>
		<path d="M253.542,305.031c-0.747-0.664-1.909-0.664-2.657,0.083c-19.184,20.596-51.489,21.676-72.085,2.492
			c-0.747-0.665-1.909-0.665-2.657,0.083c-0.664,0.747-0.664,1.91,0.083,2.657c22.091,20.596,56.805,19.35,77.316-2.74
			C254.373,306.858,254.29,305.696,253.542,305.031z"/>
	</g>
</g>
<g display="none">
	<path display="inline" d="M219.908,260.02c-16.443,0-32.056-5.896-44.098-16.609l-1.91-1.661l16.277-19.517l1.993,1.661
		c9.55,7.89,18.437,11.544,28.152,11.544c3.571,0,11.793-0.665,11.793-7.06c0-3.321-1.245-5.813-18.104-10.132
		c-19.184-4.899-35.045-10.796-35.045-33.385c0-19.267,15.446-32.72,37.62-32.72c14.699,0,27.737,4.484,38.699,13.287l1.91,1.495
		l-14.284,20.762l-2.159-1.495c-9.052-6.312-17.107-9.385-24.415-9.385c-6.396,0-10.215,2.409-10.215,6.313
		c0,4.152,1.577,5.979,19.516,10.547c20.181,5.231,33.634,12.872,33.634,32.803C259.189,246.815,243.743,260.02,219.908,260.02z
		 M181.209,241.085c10.796,8.804,24.415,13.62,38.699,13.62c21.011,0,33.967-10.879,33.967-28.319
		c0-14.533-8.056-22.007-29.648-27.654c-17.024-4.401-23.502-6.893-23.502-15.695c0-5.398,4.069-11.627,15.446-11.627
		c7.89,0,16.111,2.906,25.247,8.803l8.471-12.374c-9.634-7.059-20.845-10.63-33.468-10.63c-19.351,0-32.306,11.045-32.306,27.488
		c0,17.357,9.634,22.755,31.06,28.236c15.28,3.903,22.091,7.059,22.091,15.28c0,7.641-6.562,12.374-17.025,12.374
		c-10.215,0-19.682-3.57-29.398-11.045L181.209,241.085z"/>
</g>
<g display="none">
	<path display="inline" stroke="#000000" stroke-width="1.475" stroke-miterlimit="10" d="M326.79,98.411
		c-7.475,0-14.533-2.658-20.015-7.558l-0.83-0.747l7.392-8.887l0.913,0.748c4.318,3.571,8.388,5.231,12.789,5.231
		c1.578,0,5.315-0.332,5.315-3.238c0-1.495-0.582-2.658-8.222-4.567c-8.72-2.243-15.945-4.9-15.945-15.115
		c0-8.72,6.976-14.865,17.024-14.865c6.644,0,12.623,1.993,17.606,6.063l0.83,0.664l-6.478,9.385l-0.996-0.664
		c-4.152-2.824-7.724-4.235-11.129-4.235c-2.906,0-4.65,1.079-4.65,2.906s0.747,2.74,8.886,4.816
		c9.136,2.408,15.281,5.813,15.281,14.865C344.562,92.431,337.586,98.411,326.79,98.411z M309.184,89.774
		c4.899,3.985,11.045,6.229,17.522,6.229c9.551,0,15.446-4.9,15.446-12.873c0-6.561-3.653-9.965-13.453-12.54
		c-7.724-1.993-10.63-3.072-10.63-7.142c0-2.408,1.827-5.315,7.059-5.315c3.571,0,7.309,1.329,11.461,3.986l3.82-5.563
		c-4.318-3.156-9.468-4.817-15.198-4.817c-8.803,0-14.699,4.983-14.699,12.457c0,7.89,4.318,10.298,14.118,12.789
		c6.893,1.744,10.049,3.156,10.049,6.894c0,3.487-2.99,5.563-7.724,5.563c-4.65,0-8.886-1.577-13.37-5.065L309.184,89.774z"/>
	<path display="inline" stroke="#000000" stroke-width="1.475" stroke-miterlimit="10" d="M369.974,97.746h-18.852V50.077h18.852
		c14.616,0,25.246,10.049,25.246,23.835S384.591,97.746,369.974,97.746z M353.448,95.338h16.443
		c13.287,0,22.921-9.052,22.921-21.426s-9.634-21.426-22.921-21.426h-16.443V95.338z M369.974,88.777h-8.886v-29.73h8.886
		c8.72,0,14.865,6.146,14.865,14.865C384.84,82.798,378.86,88.777,369.974,88.777z M363.414,86.369h6.478
		c7.474,0,12.457-4.982,12.457-12.457s-4.983-12.457-12.457-12.457h-6.478V86.369z"/>
</g>
<g display="none">
	<path display="inline" stroke="#000000" stroke-width="1.475" stroke-miterlimit="10" d="M353.116,97.746h-13.288l-4.235-10.381
		h-17.938l-4.235,10.381h-13.039l20.845-48.997h10.963L353.116,97.746z M341.406,95.255h7.973L330.61,51.157h-7.724l-18.769,44.098
		h7.724l4.235-10.381h21.094L341.406,95.255z M334.596,78.396h-15.945l7.973-19.433L334.596,78.396z M322.305,75.905h8.637
		l-4.318-10.547L322.305,75.905z"/>
	<path display="inline" stroke="#000000" stroke-width="1.475" stroke-miterlimit="10" d="M377.864,97.746
		c-13.869,0-24.333-10.547-24.333-24.498c0-13.952,10.63-24.499,24.665-24.499c9.218,0,14.201,3.654,18.271,7.724l0.83,0.747
		l-7.475,8.554l-0.913-0.83c-3.405-3.073-6.063-4.734-10.796-4.734c-6.81,0-11.876,5.564-11.876,12.956
		c0,7.391,5.066,12.955,11.876,12.955c4.65,0,7.557-1.827,11.045-4.983l0.831-0.83l7.889,8.471l-0.747,0.83
		C391.815,95.421,386.252,97.746,377.864,97.746z M378.196,51.074c-12.706,0-22.34,9.467-22.34,22.091
		c0,12.623,9.385,22.09,21.925,22.09c7.225,0,12.208-1.91,16.858-6.478l-4.734-5.065c-3.487,2.989-6.81,4.816-11.792,4.816
		c-8.139,0-14.284-6.561-14.284-15.363c0-8.804,6.146-15.364,14.284-15.364c4.982,0,8.139,1.661,11.46,4.484l4.401-5.065
		C389.989,53.565,385.587,51.074,378.196,51.074z"/>
</g>
<g display="none">
	<path display="inline" d="M59.462,210.773c0-83.711,68.099-151.893,151.893-151.893c22.008,0,42.853,4.733,61.704,13.121
		c0.166-4.484,0.498-8.886,0.747-13.37c-19.267-7.973-40.36-12.374-62.451-12.374c-90.688,0-164.433,73.745-164.433,164.433
		c0,23.668,4.982,46.091,14.035,66.438c4.733,0,9.218,0,13.868,0C65.026,257.113,59.462,234.524,59.462,210.773z"/>
	<path display="inline" d="M364.908,151.809c-4.567,0.499-9.384-0.83-13.951-0.913c7.889,18.354,12.291,38.617,12.291,59.794
		c0,83.711-68.099,151.893-151.894,151.893c-22.921,0-44.679-5.148-64.195-14.201c0.498,4.567,1.495,9.385,0.083,13.786
		c19.683,8.388,41.357,13.038,64.112,13.038c90.688,0,164.434-73.745,164.434-164.433
		C375.788,190.011,371.885,170.163,364.908,151.809z"/>
</g>
<g display="none">
	<path display="inline" d="M213.596,263.342H185.61V155.381h44.596c25.496,0,41.938,15.114,41.938,38.451
		c0,23.502-17.356,38.782-44.181,38.782h-14.45v30.728H213.596z M191.008,257.944h17.108v-30.728h19.848
		c23.502,0,38.783-13.121,38.783-33.302c0-20.347-14.035-33.053-36.541-33.053h-39.198V257.944z M228.712,212.517h-20.596v-36.79
		h20.18c13.205,0,21.011,6.81,21.011,18.271C249.306,205.043,241.085,212.517,228.712,212.517z M213.596,207.036h15.198
		c9.218,0,15.197-5.148,15.197-13.121c0-11.129-9.8-12.789-15.613-12.789h-14.699L213.596,207.036L213.596,207.036z"/>
</g>
<path display="none" d="M354.777,101.566h-23.42V52.569h22.838c5.564,0,10.132,1.577,13.039,4.484
	c2.408,2.408,3.57,5.314,3.57,8.886c0,4.152-1.577,7.392-4.733,9.8c5.065,2.491,7.392,6.229,7.392,11.792
	C373.38,96.335,366.403,101.566,354.777,101.566z M333.848,99.158h20.929c6.062,0,16.193-1.495,16.193-11.543
	c0-5.232-2.325-8.305-7.889-10.381l-2.492-0.914l2.325-1.246c3.737-2.076,5.481-4.982,5.481-8.969c0-2.989-0.913-5.231-2.823-7.142
	c-2.491-2.491-6.395-3.737-11.295-3.737h-20.43V99.158z M354.777,92.597h-13.454V79.891h13.038c7.641,0,8.804,3.903,8.804,6.312
	C363.248,88.611,362.085,92.597,354.777,92.597z M343.814,90.189h10.963c5.979,0,5.979-2.99,5.979-3.986c0-0.914,0-3.82-6.312-3.82
	h-10.63V90.189z M352.036,73.829h-10.713V61.538h11.294c4.983,0,7.973,2.242,7.973,5.979
	C360.59,69.926,359.51,73.829,352.036,73.829z M343.814,71.421h8.222c6.146,0,6.146-2.741,6.146-3.82
	c0-2.907-2.989-3.571-5.48-3.571h-8.887V71.421z"/>
<g display="none">
	<path display="inline" d="M336.258,101.732h-23.337V52.901h22.755c5.564,0,10.049,1.578,13.039,4.484
		c2.408,2.408,3.57,5.315,3.57,8.886c0,4.152-1.577,7.392-4.733,9.8c5.065,2.491,7.309,6.229,7.309,11.793
		C354.86,96.501,347.884,101.732,336.258,101.732z M315.413,99.324h20.845c6.063,0,16.11-1.495,16.11-11.543
		c0-5.232-2.325-8.222-7.889-10.381l-2.409-0.914l2.326-1.245c3.736-2.076,5.48-4.9,5.48-8.97c0-2.989-0.913-5.231-2.823-7.142
		c-2.491-2.491-6.312-3.737-11.295-3.737h-20.346V99.324z M336.258,92.763h-13.371V80.14h13.038c7.641,0,8.804,3.903,8.804,6.229
		C344.728,88.777,343.565,92.763,336.258,92.763z M325.378,90.355h10.88c5.979,0,5.979-2.99,5.979-3.986c0-0.914,0-3.82-6.312-3.82
		h-10.547V90.355z M333.516,74.078h-10.63V61.787h11.295c4.982,0,7.889,2.242,7.889,5.979
		C342.153,70.175,340.991,74.078,333.516,74.078z M325.378,71.67h8.222c6.146,0,6.146-2.74,6.146-3.82
		c0-2.906-2.989-3.571-5.48-3.571h-8.887V71.67L325.378,71.67z"/>
	<path display="inline" d="M399.871,101.898h-35.793V52.984h12.706v37.122h23.17L399.871,101.898L399.871,101.898z M366.569,99.407
		h30.894v-6.81h-23.17V55.475h-7.724V99.407L366.569,99.407z"/>
</g>
<g display="none">
	<path display="inline" d="M350.375,101.566c-14.283,0-25.08-10.547-25.08-24.499c0-13.702,11.046-24.498,25.246-24.498
		c14.284,0,25.081,10.547,25.081,24.498C375.539,90.77,364.493,101.566,350.375,101.566z M350.458,54.894
		c-12.789,0-22.838,9.716-22.838,22.09c0,12.623,9.717,22.091,22.672,22.091c12.79,0,22.838-9.717,22.838-22.091
		C373.13,64.444,363.414,54.894,350.458,54.894z M350.458,92.431c-8.305,0-14.865-6.727-14.865-15.364
		c0-8.72,6.312-15.363,14.699-15.363c8.305,0,14.866,6.727,14.866,15.363C365.158,85.788,358.845,92.431,350.458,92.431z
		 M350.375,64.112c-7.059,0-12.291,5.564-12.291,12.955c0,7.392,5.398,12.956,12.457,12.956c7.06,0,12.291-5.564,12.291-12.956
		C362.832,69.677,357.434,64.112,350.375,64.112z"/>
</g>
<g display="none">
	<path display="inline" d="M345.309,101.566h-12.706V52.569h20.264c11.543,0,19.018,6.81,19.018,17.439
		c0,10.713-7.89,17.606-20.015,17.606h-6.561V101.566z M335.094,99.075h7.807V85.123h8.969c10.713,0,17.606-5.896,17.606-15.114
		s-6.395-15.031-16.609-15.031h-17.772V99.075z M352.202,78.479h-9.301V61.787h9.135c5.979,0,9.551,3.073,9.551,8.305
		C361.504,75.074,357.766,78.479,352.202,78.479z M345.309,75.988h6.893c4.152,0,6.894-2.325,6.894-5.979
		c0-5.065-4.402-5.813-7.06-5.813h-6.644L345.309,75.988L345.309,75.988z"/>
</g>
<path display="none" d="M326.375,91.268l27.405,15.779c0.664,0.415,1.495,0.166,1.91-0.498l19.35-33.552
	c0.166-0.332,0.249-0.664,0.166-0.996l-3.238-13.204c-0.083-0.333-0.332-0.665-0.664-0.831l-19.268-11.128
	c-0.664-0.415-1.495-0.166-1.91,0.498l-24.249,42.021C325.461,90.023,325.711,90.853,326.375,91.268z M353.78,102.729
	l-23.834-13.786l21.841-37.869l16.775,9.634l2.824,11.543L353.78,102.729z"/>
<g display="none">
	<polyline display="inline" fill="none" stroke="#000000" stroke-width="4.4117" stroke-miterlimit="10" points="348.798,105.137 
		363.414,90.936 349.296,76.32 349.296,76.071 349.296,75.739 363.912,61.621 349.794,47.005 	"/>
	<polyline display="inline" fill="none" stroke="#000000" stroke-width="4.4117" stroke-miterlimit="10" points="363.912,61.621 
		349.296,75.739 349.047,75.988 334.347,90.189 	"/>
	<polyline display="inline" fill="none" stroke="#000000" stroke-width="4.4117" stroke-miterlimit="10" points="334.845,61.372 
		349.047,75.988 349.296,76.32 363.414,90.936 	"/>
	<polyline display="inline" fill="none" stroke="#000000" stroke-width="4.4117" stroke-miterlimit="10" points="348.798,105.137 
		349.296,76.32 349.296,76.071 349.296,75.739 349.794,47.005 	"/>
</g>
<path display="none" stroke="#000000" stroke-miterlimit="10" d="M379.192,78.313c0.166-0.166,0.249-0.415,0.249-0.664
	s-0.083-0.499-0.249-0.665L351.04,48.832c-0.166-0.166-0.415-0.249-0.665-0.249c-0.249,0-0.498,0.083-0.664,0.249l-28.152,28.152
	c-0.167,0.166-0.25,0.416-0.25,0.665s0.084,0.498,0.25,0.664l28.152,28.153c0.332,0.332,0.914,0.332,1.246,0L379.192,78.313z
	 M350.043,104.307l-26.575-26.575l0.333-0.332l26.574-26.575l0.333,0.332l26.574,26.575l-0.332,0.332l-26.575,26.575
	L350.043,104.307z"/>
<g display="none">
	<g display="inline">
		<path stroke="#000000" stroke-width="2" stroke-miterlimit="10" d="M366.984,105.137h-33.136c-2.989,0-5.48-2.491-5.48-5.481
			V67.102c0-0.499,0.415-0.914,0.913-0.914s0.914,0.415,0.914,0.914v32.554c0,2.076,1.66,3.737,3.736,3.737h33.136
			c2.076,0,3.737-1.661,3.737-3.737V67.351c0-0.498,0.415-0.914,0.914-0.914c0.498,0,0.913,0.416,0.913,0.914v32.305
			C372.466,102.646,369.974,105.137,366.984,105.137z"/>
		<path stroke="#000000" stroke-width="2" stroke-miterlimit="10" d="M374.044,64.278H326.79c-0.498,0-0.913-0.415-0.913-0.913
			v-5.481c0-2.325,1.91-4.235,4.235-4.235h40.526c2.325,0,4.235,1.91,4.235,4.235v5.481
			C374.957,63.946,374.542,64.278,374.044,64.278z M327.62,62.534h45.51v-4.567c0-1.411-1.162-2.491-2.491-2.491h-40.526
			c-1.412,0-2.492,1.163-2.492,2.491V62.534z"/>
		<path stroke="#000000" stroke-width="2" stroke-miterlimit="10" d="M342.901,55.475c-0.498,0-0.914-0.415-0.914-0.913v-3.405
			c0-2.325,1.91-4.235,4.235-4.235h8.222c2.325,0,4.235,1.91,4.235,4.235v3.239c0,0.498-0.415,0.913-0.913,0.913
			s-0.913-0.415-0.913-0.913v-3.239c0-1.412-1.163-2.491-2.492-2.491h-8.056c-1.411,0-2.491,1.162-2.491,2.491v3.405
			C343.814,55.06,343.399,55.475,342.901,55.475z"/>
	</g>
	<path display="inline" stroke="#000000" stroke-width="2" stroke-miterlimit="10" d="M345.724,98.66c-0.083,0-0.249,0-0.332-0.083
		c-0.166-0.083-0.498-0.415-0.332-1.08l2.74-10.464h-5.73c-0.415,0-0.83-0.249-0.996-0.581c-0.166-0.415-0.083-0.83,0.249-1.163
		l12.872-15.28c0.498-0.581,0.914-0.498,1.163-0.332c0.166,0.083,0.498,0.415,0.249,1.079l-2.657,10.298h5.646
		c0.665,0,0.914,0.416,0.997,0.582c0.166,0.332,0.083,0.747-0.166,1.079l-12.955,15.53C346.222,98.494,345.973,98.66,345.724,98.66z
		 M342.901,85.622h5.231c0.499,0,0.831,0.166,0.997,0.415c0.083,0.166,0.249,0.498,0.083,0.913l-2.159,8.222l10.63-12.706h-5.149
		c-0.415,0-0.83-0.166-0.996-0.498s-0.249-0.665-0.083-0.997l2.076-7.973L342.901,85.622z M348.216,87.033L348.216,87.033
		L348.216,87.033z M347.967,86.535L347.967,86.535L347.967,86.535L347.967,86.535z M342.403,86.203L342.403,86.203L342.403,86.203z"
		/>
</g>
<path display="none" fill="none" stroke="#000000" stroke-width="13" stroke-miterlimit="10" d="M45.925,273.141V47.586
	c0-1.827,1.495-3.321,3.322-3.321h223.895"/>
<path display="none" fill="none" stroke="#000000" stroke-width="13" stroke-miterlimit="10" d="M377.033,152.059v222.648
	c0,1.827-1.494,3.322-3.321,3.322H152.059"/>
<path display="none" fill="none" stroke="#000000" stroke-width="8" stroke-miterlimit="10" d="M305.281,152.059v11.377
	c-2.492,0.498-4.401,2.74-4.401,5.398c0,2.657,1.909,4.899,4.401,5.397v17.855c-2.492,0.498-4.401,2.74-4.401,5.397
	c0,2.658,1.909,4.9,4.401,5.398v17.855c-2.492,0.498-4.401,2.74-4.401,5.397c0,2.658,1.909,4.9,4.401,5.398v17.855
	c-2.492,0.498-4.401,2.74-4.401,5.397s1.909,4.899,4.401,5.398v18.021c-2.492,0.499-4.401,2.741-4.401,5.398
	s1.909,4.899,4.401,5.398v17.854c-2.492,0.498-4.401,2.741-4.401,5.398s1.909,4.899,4.401,5.397v17.855
	c-2.492,0.498-4.401,2.74-4.401,5.398c0,2.657,1.909,4.899,4.401,5.397v24.416H152.059"/>
<path display="none" fill="none" stroke="#000000" stroke-width="8" stroke-miterlimit="10" d="M128.722,273.141v-12.789
	c0.332,0.083,0.748,0.083,1.08,0.083c3.072,0,5.48-2.491,5.48-5.481c0-3.072-2.491-5.48-5.48-5.48c-0.415,0-0.748,0-1.08,0.083
	v-17.855c0.332,0.083,0.748,0.083,1.08,0.083c3.072,0,5.48-2.491,5.48-5.481c0-3.072-2.491-5.48-5.48-5.48
	c-0.415,0-0.748,0.083-1.08,0.083V203.05c0.332,0.083,0.748,0.083,1.08,0.083c3.072,0,5.48-2.491,5.48-5.48
	c0-3.073-2.491-5.481-5.48-5.481c-0.415,0-0.748,0-1.08,0.083v-17.855c0.332,0.083,0.748,0.083,1.08,0.083
	c3.072,0,5.48-2.491,5.48-5.48c0-3.073-2.491-5.481-5.48-5.481c-0.415,0-0.748,0-1.08,0.083v-17.854
	c0.332,0.083,0.748,0.083,1.08,0.083c3.072,0,5.48-2.492,5.48-5.481c0-2.99-2.491-5.481-5.48-5.481c-0.415,0-0.748,0.083-1.08,0.083
	v-17.854c0.332,0.083,0.748,0.083,1.08,0.083c3.072,0,5.48-2.491,5.48-5.564c0-3.072-2.491-5.481-5.48-5.481
	c-0.415,0-0.748,0-1.08,0.084V88.362c0.332,0.083,0.748,0.083,1.08,0.083c3.072,0,5.48-2.491,5.48-5.481
	c0-2.989-2.491-5.563-5.48-5.563c-0.415,0-0.748,0.083-1.08,0.083V55.226h24.416c0.498,2.491,2.74,4.401,5.398,4.401
	c2.657,0,4.899-1.91,5.397-4.401h109.207"/>
<g display="none">
	<path display="inline" d="M191.507,209.942h-7.226v-15.695l-6.395,9.717h-0.747l-0.332-0.333l-6.146-9.301v15.613h-7.143v-27.987
		h7.392l6.561,10.63l6.561-10.63h7.392L191.507,209.942z M185.693,208.531h4.401v-25.163h-5.232l-7.391,11.875l-7.392-11.875h-5.231
		v25.163h4.318v-18.852l8.222,12.457l8.222-12.54L185.693,208.531z"/>
</g>
<g display="none">
	<path display="inline" d="M241.833,210.192h-7.143v-20.513l-4.401,1.079l-1.577-6.063l8.388-2.491h4.65L241.833,210.192
		L241.833,210.192z M236.102,208.78h4.318v-25.163h-3.155l-6.811,2.076l0.831,3.404l4.816-1.162V208.78z"/>
</g>
<g display="none">
	<path display="inline" d="M212.102,210.607c-3.986,0-7.392-1.329-10.298-4.152l-0.499-0.415l4.318-5.232l0.499,0.498
		c1.993,1.827,3.819,2.658,5.813,2.658c1.412,0,3.654-0.416,3.654-2.99c0-2.076-2.076-2.823-3.903-2.823
		c-1.328,0-2.657,0.332-4.069,0.913l-0.332,0.166l-3.986-2.657l0.831-13.952h17.439v6.395h-11.211l-0.166,2.907
		c0.747-0.166,1.577-0.249,2.657-0.249c6.146,0,9.883,3.404,9.883,9.135C222.732,206.787,218.497,210.607,212.102,210.607z
		 M203.216,205.957c2.574,2.242,5.398,3.321,8.803,3.321c5.73,0,9.219-3.238,9.219-8.388c0-6.727-5.315-7.724-8.471-7.724
		c-1.412,0-2.325,0.166-3.239,0.416l-0.913,0.249l0.415-6.146h11.128v-3.654h-14.699l-0.664,11.876l2.657,1.744
		c1.495-0.582,2.907-0.914,4.318-0.914c3.239,0,5.315,1.661,5.315,4.235c0,2.741-1.91,4.401-5.066,4.401
		c-2.159,0-4.069-0.83-6.146-2.574L203.216,205.957z"/>
</g>
<g display="none">
	<path display="inline" d="M258.442,209.527c-3.488,0-6.229-0.996-8.886-3.238l-0.499-0.415l3.737-5.398l0.581,0.498
		c1.827,1.495,3.322,2.076,5.232,2.076c2.657,0,3.82-1.91,4.235-3.737c-1.246,0.665-2.657,0.997-4.235,0.997
		c-6.063,0-9.883-3.488-9.883-9.053c0-5.646,4.401-9.716,10.464-9.716c3.571,0,5.73,0.83,7.89,2.989
		c2.242,2.242,3.239,5.481,3.239,10.298C270.401,203.881,265.833,209.527,258.442,209.527z M250.968,205.624
		c2.242,1.744,4.651,2.492,7.558,2.492c6.644,0,10.547-4.983,10.547-13.371c0-4.401-0.913-7.391-2.823-9.301
		s-3.737-2.575-6.977-2.575c-5.397,0-9.135,3.405-9.135,8.305c0,4.817,3.155,7.724,8.554,7.724c1.91,0,3.571-0.498,4.816-1.578
		l1.329-1.079l-0.166,1.661c-0.415,4.069-2.574,6.478-5.896,6.478c-1.993,0-3.654-0.581-5.481-1.91L250.968,205.624z
		 M259.521,195.576c-3.072,0-5.148-1.827-5.148-4.568c0-2.823,1.993-4.65,5.065-4.65c3.073,0,5.232,1.827,5.232,4.65
		C264.671,193.749,262.594,195.576,259.521,195.576z M259.438,187.769c-2.325,0-3.653,1.245-3.653,3.321
		c0,1.993,1.494,3.156,3.819,3.156c2.326,0,3.737-1.246,3.737-3.239C263.259,189.014,261.763,187.769,259.438,187.769z"/>
</g>
<path display="none" fill="none" stroke="#000000" stroke-width="8" stroke-miterlimit="10" d="M129.47,347.053
	c3.072,0,5.563-2.492,5.563-5.564c0-3.073-2.491-5.564-5.563-5.564c-0.416,0-0.748,0-1.08,0.083V318.07
	c0.332,0.083,0.748,0.083,1.08,0.083c3.072,0,5.563-2.492,5.563-5.564c0-3.073-2.491-5.564-5.563-5.564c-0.416,0-0.748,0-1.08,0.083
	v-18.021c0.332,0.083,0.748,0.083,1.08,0.083c3.072,0,5.563-2.492,5.563-5.564c0-3.073-2.491-5.564-5.563-5.564
	c-0.416,0-0.748,0-1.08,0.083v-18.021c0.332,0.083,0.748,0.083,1.08,0.083c3.072,0,5.563-2.492,5.563-5.564
	c0-3.073-2.491-5.564-5.563-5.564c-0.416,0-0.748,0-1.08,0.083V231.12c0.332,0.083,0.748,0.083,1.08,0.083
	c3.072,0,5.563-2.492,5.563-5.564s-2.491-5.564-5.563-5.564c-0.416,0-0.748,0-1.08,0.083v-18.021
	c0.332,0.083,0.748,0.083,1.08,0.083c3.072,0,5.563-2.491,5.563-5.564c0-3.072-2.491-5.564-5.563-5.564c-0.416,0-0.748,0-1.08,0.083
	v-17.605c0.332,0.083,0.748,0.083,1.08,0.083c3.072,0,5.563-2.491,5.563-5.564c0-3.072-2.491-5.563-5.563-5.563
	c-0.416,0-0.748,0-1.08,0.083v-18.021c0.332,0.083,0.748,0.083,1.08,0.083c3.072,0,5.563-2.491,5.563-5.564
	c0-3.072-2.491-5.563-5.563-5.563c-0.416,0-0.748,0-1.08,0.083v-18.021c0.332,0.083,0.748,0.083,1.08,0.083
	c3.072,0,5.563-2.491,5.563-5.564c0-3.072-2.491-5.563-5.563-5.563c-0.416,0-0.748,0-1.08,0.083V86.618
	c0.332,0.083,0.748,0.083,1.08,0.083c3.072,0,5.563-2.491,5.563-5.564c0-3.072-2.491-5.563-5.563-5.563c-0.416,0-0.748,0-1.08,0.083
	V53.731h24.582c0.498,2.574,2.74,4.484,5.481,4.484c2.657,0,4.899-1.91,5.48-4.484h142.343v22.34
	c-2.574,0.498-4.484,2.74-4.484,5.481c0,2.657,1.91,4.899,4.484,5.48v18.021c-2.574,0.498-4.484,2.74-4.484,5.481
	c0,2.657,1.91,4.899,4.484,5.48v18.021c-2.574,0.498-4.484,2.74-4.484,5.481c0,2.657,1.91,4.899,4.484,5.48v18.021
	c-2.574,0.498-4.484,2.74-4.484,5.481c0,2.657,1.91,4.899,4.484,5.48v18.021c-2.574,0.498-4.484,2.74-4.484,5.481
	c0,2.657,1.91,4.899,4.484,5.48v18.021c-2.574,0.498-4.484,2.74-4.484,5.48c0,2.658,1.91,4.9,4.484,5.481v18.021
	c-2.574,0.498-4.484,2.74-4.484,5.48c0,2.658,1.91,4.9,4.484,5.481v18.021c-2.574,0.498-4.484,2.74-4.484,5.48
	c0,2.658,1.91,4.9,4.484,5.481v18.021c-2.574,0.498-4.484,2.74-4.484,5.48c0,2.658,1.91,4.9,4.484,5.481v18.021
	c-2.574,0.498-4.484,2.74-4.484,5.48c0,2.658,1.91,4.9,4.484,5.481v24.582H128.39v-24.582
	C128.722,347.053,129.054,347.053,129.47,347.053z"/>
<g display="none">
	<path display="inline" d="M212.018,44.181c-91.518,0-165.928,74.409-165.928,165.928c0,91.518,74.41,165.928,165.928,165.928
		c91.519,0,165.929-74.41,165.929-165.928C377.947,118.591,303.537,44.181,212.018,44.181z M212.018,363.413
		c-84.541,0-153.304-68.763-153.304-153.304c0-84.542,68.763-153.305,153.304-153.305c84.542,0,153.306,68.763,153.306,153.305
		C365.324,294.65,296.56,363.413,212.018,363.413z"/>
</g>
<path display="none" fill="none" stroke="#000000" stroke-width="15.7955" stroke-miterlimit="10" d="M368.23,376.12H55.807
	c-4.069,0-7.474-3.322-7.474-7.475V56.305c0-4.069,3.321-7.474,7.474-7.474h312.34c4.069,0,7.475,3.321,7.475,7.474v312.423
	C375.622,372.798,372.3,376.12,368.23,376.12z"/>
<rect x="111.591" y="111.591" fill="#FFFFFF" stroke="#000000" stroke-miterlimit="10" width="202.015" height="202.013"/>
<g display="none">
	
		<line display="inline" fill="none" stroke="#000000" stroke-width="6" stroke-miterlimit="10" x1="62.036" y1="326.042" x2="35.461" y2="352.617"/>
	
		<line display="inline" fill="none" stroke="#000000" stroke-width="6" stroke-miterlimit="10" x1="33.135" y1="353.282" x2="126.231" y2="353.282"/>
</g>
<g display="none">
	
		<line display="inline" fill="none" stroke="#000000" stroke-width="6" stroke-miterlimit="10" x1="97.331" y1="391.317" x2="123.906" y2="364.742"/>
	
		<line display="inline" fill="none" stroke="#000000" stroke-width="6" stroke-miterlimit="10" x1="126.231" y1="364.078" x2="33.135" y2="364.078"/>
</g>
<text transform="matrix(1 0 0 1 18.3318 364.9822)" display="none" enable-background="new    " font-family="'Nunito-Regular'" font-size="55.9789">RDR</text>
<g>
	<g>
		<path d="M150.088,177.196c2.847,1.857,5.074,4.457,6.561,7.799c1.608,3.342,2.352,7.179,2.352,11.634
			c0,4.457-0.744,8.294-2.352,11.512c-1.61,3.342-3.713,5.818-6.561,7.676c-2.847,1.855-6.065,2.723-9.902,2.723
			c-3.343,0-6.189-0.743-8.665-2.229c-2.476-1.486-4.333-3.465-5.57-6.189v20.423c0,0.991-0.248,1.857-0.866,2.477
			c-0.62,0.618-1.486,0.867-2.6,0.867c-1.115,0-1.981-0.373-2.6-0.991c-0.619-0.619-0.99-1.485-0.99-2.477v-52.483
			c0-0.99,0.371-1.856,0.99-2.475c0.619-0.62,1.484-0.991,2.6-0.991c1.113,0,1.979,0.371,2.6,0.991
			c0.619,0.619,0.866,1.484,0.866,2.475v4.704c1.237-2.723,3.094-4.704,5.57-6.189c2.476-1.486,5.322-2.229,8.665-2.229
			C143.899,174.472,147.241,175.34,150.088,177.196z M148.478,208.512c2.229-2.847,3.342-6.684,3.342-11.883
			c0-5.074-1.114-9.159-3.342-12.006s-5.447-4.333-9.531-4.333c-4.084,0-7.303,1.362-9.531,4.209
			c-2.229,2.846-3.342,6.808-3.342,11.882c0,5.076,1.113,9.16,3.342,12.007s5.447,4.209,9.531,4.209
			C142.908,212.722,146.126,211.236,148.478,208.512z"/>
		<path d="M176.577,215.817c-3.095-1.857-5.445-4.333-7.055-7.676c-1.61-3.342-2.476-7.179-2.476-11.512
			c0-4.332,0.866-8.169,2.6-11.634c1.734-3.342,4.084-5.942,7.179-7.799c3.095-1.856,6.56-2.847,10.646-2.847
			c2.229,0,4.456,0.248,6.561,0.868c2.229,0.619,4.084,1.485,5.694,2.598c0.99,0.744,1.732,1.362,2.227,2.105
			c0.496,0.619,0.62,1.362,0.62,2.229c0,0.866-0.248,1.484-0.62,1.979c-0.495,0.496-0.99,0.744-1.732,0.744
			c-0.371,0-0.866-0.124-1.362-0.371c-0.495-0.248-0.866-0.496-1.237-0.744s-0.495-0.372-0.619-0.495
			c-1.486-0.99-2.971-1.732-4.333-2.352c-1.361-0.619-3.095-0.866-4.951-0.866c-4.208,0-7.552,1.486-9.902,4.333
			c-2.352,2.846-3.589,6.808-3.589,12.005c0,5.076,1.237,9.037,3.589,11.883c2.351,2.847,5.694,4.21,9.902,4.21
			c1.981,0,3.713-0.248,5.076-0.868c1.361-0.619,2.846-1.361,4.332-2.351c0.618-0.372,1.237-0.744,1.857-0.992
			c0.619-0.247,1.114-0.495,1.485-0.495c0.619,0,1.237,0.248,1.61,0.742c0.495,0.497,0.619,1.239,0.619,1.981
			c0,0.743-0.248,1.486-0.619,2.105c-0.373,0.618-1.115,1.237-2.229,2.104c-1.61,1.115-3.589,1.98-5.942,2.6
			c-2.352,0.618-4.581,0.991-6.931,0.991C183.137,218.54,179.672,217.673,176.577,215.817z"/>
		<path d="M209.009,241.687c-0.495,0.371-1.115,0.618-1.734,0.618c-0.866,0-1.484-0.247-2.229-0.866
			c-0.619-0.618-0.99-1.36-0.99-2.229c0-0.371,0.124-0.742,0.248-1.237l20.549-64.244c0.247-0.742,0.618-1.361,1.113-1.732
			c0.495-0.373,1.115-0.62,1.733-0.62c0.866,0,1.484,0.248,2.229,0.868c0.619,0.619,0.99,1.361,0.99,2.227
			c0,0.124,0,0.495-0.124,1.115l-20.672,64.243C209.875,240.697,209.504,241.315,209.009,241.687z"/>
		<path d="M237.85,246.018c-2.353-0.618-4.58-1.484-6.438-2.722c-0.989-0.744-1.733-1.362-2.229-1.981
			c-0.494-0.618-0.618-1.362-0.618-2.229c0-0.742,0.247-1.36,0.618-1.855c0.495-0.496,0.992-0.744,1.734-0.744
			s1.731,0.497,3.095,1.363c1.731,0.989,3.465,1.855,5.199,2.476c1.731,0.618,3.837,0.866,6.437,0.866
			c3.095,0,5.568-0.495,7.303-1.61c1.733-1.113,2.6-2.723,2.6-4.826c0-1.239-0.371-2.353-0.991-3.095
			c-0.619-0.742-1.732-1.486-3.343-2.104c-1.608-0.619-3.836-1.237-6.931-1.856c-5.074-1.115-8.789-2.6-11.017-4.457
			c-2.229-1.857-3.342-4.332-3.342-7.55c0-2.477,0.742-4.705,2.104-6.561c1.362-1.857,3.342-3.467,5.818-4.581
			c2.476-1.114,5.322-1.608,8.417-1.608c2.229,0,4.456,0.248,6.561,0.866c2.104,0.619,3.961,1.485,5.57,2.6
			c1.979,1.361,2.971,2.847,2.971,4.332c0,0.743-0.247,1.362-0.743,1.857c-0.495,0.495-0.99,0.742-1.608,0.742
			c-0.742,0-1.733-0.495-3.095-1.486c-1.61-0.99-3.219-1.856-4.581-2.475c-1.484-0.62-3.218-0.868-5.445-0.868
			c-2.724,0-4.952,0.62-6.561,1.857c-1.609,1.237-2.476,2.847-2.476,4.827c0,1.238,0.247,2.352,0.866,3.094
			c0.618,0.744,1.609,1.486,3.095,2.105c1.36,0.618,3.466,1.238,6.188,1.733c3.961,0.866,7.056,1.855,9.16,2.847
			c2.229,0.99,3.714,2.352,4.705,3.837c0.865,1.485,1.36,3.466,1.36,5.694c0,3.714-1.484,6.561-4.579,8.789
			c-3.095,2.228-7.181,3.342-12.255,3.342C242.802,246.886,240.202,246.638,237.85,246.018z"/>
		<path d="M280.06,244.163c-3.095-1.857-5.446-4.333-7.057-7.676c-1.608-3.342-2.475-7.179-2.475-11.511
			c0-4.333,0.866-8.17,2.6-11.636c1.732-3.342,4.085-5.941,7.18-7.799c3.094-1.856,6.56-2.847,10.645-2.847
			c2.229,0,4.457,0.249,6.56,0.868c2.229,0.619,4.086,1.484,5.694,2.6c0.991,0.742,1.734,1.361,2.229,2.103
			c0.495,0.619,0.619,1.363,0.619,2.229c0,0.866-0.247,1.485-0.619,1.981c-0.494,0.495-0.989,0.742-1.733,0.742
			c-0.371,0-0.866-0.123-1.36-0.371c-0.495-0.248-0.866-0.495-1.237-0.743c-0.373-0.249-0.497-0.373-0.62-0.496
			c-1.485-0.99-2.972-1.732-4.332-2.351c-1.361-0.62-3.095-0.868-4.952-0.868c-4.208,0-7.55,1.486-9.902,4.333
			s-3.59,6.808-3.59,12.007c0,5.074,1.237,9.036,3.59,11.882c2.353,2.848,5.694,4.21,9.902,4.21c1.981,0,3.715-0.248,5.076-0.866
			c1.36-0.62,2.847-1.362,4.331-2.353c0.62-0.371,1.239-0.742,1.857-0.991c0.619-0.247,1.114-0.495,1.486-0.495
			c0.619,0,1.237,0.248,1.608,0.744c0.495,0.495,0.619,1.237,0.619,1.979s-0.248,1.486-0.619,2.104
			c-0.371,0.619-1.113,1.237-2.229,2.105c-1.608,1.113-3.59,1.979-5.941,2.598c-2.351,0.62-4.579,0.991-6.932,0.991
			C286.621,246.886,283.031,246.018,280.06,244.163z"/>
	</g>
</g>
<g display="none">
	<path display="inline" d="M115.684,371.136h-79.31c-3.073,0-5.564-2.491-5.564-5.563v-37.87c0-3.072,2.491-5.563,5.564-5.563
		h79.393c3.073,0,5.564,2.491,5.564,5.563v37.87C121.249,368.645,118.758,371.136,115.684,371.136z M36.375,325.876
		c-0.997,0-1.827,0.831-1.827,1.827v37.87c0,0.996,0.83,1.826,1.827,1.826h79.393c0.997,0,1.827-0.83,1.827-1.826v-37.87
		c0-0.996-0.83-1.827-1.827-1.827H36.375z"/>
	<g display="inline">
		<rect x="59.794" y="352.285" width="31.724" height="3.737"/>
		<g>
			<rect x="94.923" y="352.285" width="3.737" height="3.737"/>
			<rect x="101.898" y="352.285" width="3.737" height="3.737"/>
		</g>
		<g>
			<g>
				<rect x="94.923" y="345.641" width="3.737" height="3.737"/>
				<rect x="101.898" y="345.641" width="3.737" height="3.737"/>
			</g>
			<g>
				<rect x="87.864" y="345.641" width="3.736" height="3.737"/>
				<rect x="94.923" y="345.641" width="3.737" height="3.737"/>
			</g>
			<g>
				<rect x="80.887" y="345.641" width="3.737" height="3.737"/>
				<rect x="87.947" y="345.641" width="3.736" height="3.737"/>
			</g>
			<g>
				<rect x="73.829" y="345.641" width="3.737" height="3.737"/>
				<rect x="80.887" y="345.641" width="3.737" height="3.737"/>
			</g>
			<g>
				<rect x="66.769" y="345.641" width="3.737" height="3.737"/>
				<rect x="73.829" y="345.641" width="3.737" height="3.737"/>
			</g>
			<g>
				<rect x="59.794" y="345.641" width="3.737" height="3.737"/>
				<rect x="66.769" y="345.641" width="3.737" height="3.737"/>
			</g>
			<g>
				<rect x="52.818" y="345.641" width="3.737" height="3.737"/>
				<rect x="59.794" y="345.641" width="3.737" height="3.737"/>
			</g>
			<g>
				<rect x="45.759" y="345.641" width="3.737" height="3.737"/>
				<rect x="52.818" y="345.641" width="3.737" height="3.737"/>
			</g>
		</g>
		<g>
			<g>
				<rect x="94.84" y="338.499" width="3.737" height="3.737"/>
				<rect x="101.898" y="338.499" width="3.737" height="3.737"/>
			</g>
			<g>
				<rect x="87.781" y="338.499" width="3.736" height="3.737"/>
				<rect x="94.84" y="338.499" width="3.737" height="3.737"/>
			</g>
			<g>
				<rect x="80.804" y="338.499" width="3.737" height="3.737"/>
				<rect x="87.864" y="338.499" width="3.736" height="3.737"/>
			</g>
			<g>
				<rect x="73.746" y="338.499" width="3.737" height="3.737"/>
				<rect x="80.804" y="338.499" width="3.737" height="3.737"/>
			</g>
			<g>
				<rect x="66.769" y="338.499" width="3.737" height="3.737"/>
				<rect x="73.746" y="338.499" width="3.737" height="3.737"/>
			</g>
			<g>
				<rect x="59.711" y="338.499" width="3.737" height="3.737"/>
				<rect x="66.769" y="338.499" width="3.737" height="3.737"/>
			</g>
			<g>
				<rect x="52.735" y="338.499" width="3.736" height="3.737"/>
				<rect x="59.794" y="338.499" width="3.737" height="3.737"/>
			</g>
			<g>
				<rect x="45.676" y="338.499" width="3.737" height="3.737"/>
				<rect x="52.735" y="338.499" width="3.736" height="3.737"/>
			</g>
		</g>
		<g>
			<rect x="45.676" y="352.285" width="3.737" height="3.737"/>
			<rect x="52.735" y="352.285" width="3.736" height="3.737"/>
		</g>
	</g>
</g>
</svg>
