<?xml version="1.0" encoding="UTF-8"?><svg id="Calque_1" xmlns="http://www.w3.org/2000/svg" viewBox="0 0 512 512"><defs><style>.cls-1{fill:#fff;}.cls-2{stroke:#000;stroke-miterlimit:10;stroke-width:5px;}</style></defs><path d="m502,10v163.1h-163.1V10h163.1m6-10h-175.1c-2.2,0-4,1.8-4,4v175.1c0,2.2,1.8,4,4,4h175.1c2.2,0,4-1.8,4-4V4c0-2.2-1.8-4-4-4h0Z"/><rect class="cls-1" x="338.9" y="10" width="163.1" height="163.1"/><path class="cls-2" d="m421.83,142.8c-29.15,0-51.19-21.53-51.19-50s22.54-50,51.53-50,51.19,21.53,51.19,50c-.17,27.97-22.71,50-51.53,50Zm.17-95.25c-26.1,0-46.61,19.83-46.61,45.08s19.83,45.08,46.27,45.08,46.61-19.83,46.61-45.08-19.83-45.08-46.27-45.08Zm0,76.61c-16.95,0-30.34-13.73-30.34-31.36s12.88-31.36,30-31.36,30.34,13.73,30.34,31.36-12.88,31.36-30,31.36Zm-.17-57.8c-14.41,0-25.08,11.36-25.08,26.44s11.02,26.44,25.42,26.44,25.08-11.36,25.08-26.44-11.02-26.44-25.42-26.44Z"/></svg>