<?xml version="1.0" encoding="UTF-8"?><svg id="Calque_1" xmlns="http://www.w3.org/2000/svg" viewBox="0 0 512 512"><defs><style>.cls-1{fill:#fff;}.cls-2{stroke:#000;stroke-miterlimit:10;stroke-width:5px;}</style></defs><path d="m502,10v163.1h-163.1V10h163.1m6-10h-175.1c-2.2,0-4,1.8-4,4v175.1c0,2.2,1.8,4,4,4h175.1c2.2,0,4-1.8,4-4V4c0-2.2-1.8-4-4-4h0Z"/><rect class="cls-1" x="338.9" y="10" width="163.1" height="163.1"/><g><path class="cls-2" d="m426.91,128.2h-21.69l-6.92-16.95h-29.29l-6.92,16.95h-21.29l34.03-80h17.9l34.17,80Zm-19.12-4.07h13.02l-30.64-72h-12.61l-30.64,72h12.61l6.92-16.95h34.44l6.92,16.95Zm-11.12-27.53h-26.03l13.02-31.73,13.02,31.73Zm-20.07-4.07h14.1l-7.05-17.22-7.05,17.22Z"/><path class="cls-2" d="m467.32,128.2c-22.64,0-39.73-17.22-39.73-40s17.36-40,40.27-40c15.05,0,23.19,5.97,29.83,12.61l1.36,1.22-12.2,13.97-1.49-1.36c-5.56-5.02-9.9-7.73-17.63-7.73-11.12,0-19.39,9.08-19.39,21.15s8.27,21.15,19.39,21.15c7.59,0,12.34-2.98,18.03-8.14l1.36-1.36,12.88,13.83-1.22,1.36c-8.68,9.49-17.76,13.29-31.46,13.29Zm.54-76.2c-20.75,0-36.47,15.46-36.47,36.07s15.32,36.07,35.8,36.07c11.8,0,19.93-3.12,27.53-10.58l-7.73-8.27c-5.69,4.88-11.12,7.86-19.25,7.86-13.29,0-23.32-10.71-23.32-25.08s10.03-25.08,23.32-25.08c8.14,0,13.29,2.71,18.71,7.32l7.19-8.27c-6.51-5.97-13.69-10.03-25.76-10.03Z"/></g></svg>