<?xml version="1.0" encoding="UTF-8"?><svg id="Calque_1" xmlns="http://www.w3.org/2000/svg" viewBox="0 0 512 512"><defs><style>.cls-1,.cls-2{stroke:#000;stroke-miterlimit:10;}.cls-2{stroke-width:4px;}.cls-3{isolation:isolate;}</style></defs><path class="cls-1" d="m179.1,328.9H4c-2.2,0-4,1.8-4,4v175.2c0,2.2,1.8,4,4,4h175.2c2.2,0,4-1.8,4-4v-175.2c-.1-2.2-1.9-4-4.1-4h0Zm-6,173.2H10v-163.2h163.1v163.2Z"/><path class="cls-2" d="m113.76,377.62c-.9.9-2.4.8-3.2-.2-10.4-11.2-27.9-11.7-39.1-1.4-.9.9-2.4.8-3.2-.2-.9-.9-.8-2.4.2-3.2,12.9-12.1,33.4-11.3,45.5,1.6.8,1,.8,2.4-.2,3.4h0Z"/><path class="cls-2" d="m126.66,365.42c-.9.9-2.4.8-3.2-.2-17-18.3-45.8-19.4-63.9-2.2-.9.9-2.4.8-3.2-.2-.9-.9-.8-2.4.2-3.2,20-18.7,51.7-17.6,70.4,2.4.7,1.2.7,2.7-.3,3.4h0Z"/><path class="cls-2" d="m111.89,465.45c-.9-.9-2.4-.8-3.2.2-10.4,11.2-27.9,11.7-39.1,1.4-.9-.9-2.4-.8-3.2.2-.9.9-.8,2.4.2,3.2,12.9,12.1,33.4,11.3,45.5-1.6.8-1,.8-2.4-.2-3.4h0Z"/><path class="cls-2" d="m124.79,477.65c-.9-.9-2.4-.8-3.2.2-17,18.3-45.8,19.4-63.9,2.2-.9-.9-2.4-.8-3.2.2-.9.9-.8,2.4.2,3.2,20,18.7,51.7,17.6,70.4-2.4.7-1.2.7-2.7-.3-3.4h0Z"/><g class="cls-3"><g class="cls-3"><path d="m64.24,397.21c.98,1.03,1.48,2.37,1.48,4v40.39c0,1.68-.49,3.04-1.48,4.07-.98,1.03-2.27,1.55-3.85,1.55-1.73,0-3.12-.62-4.18-1.87l-24.12-30.89v27.14c0,1.68-.47,3.04-1.4,4.07-.94,1.03-2.2,1.55-3.78,1.55s-2.86-.51-3.82-1.55c-.96-1.03-1.44-2.39-1.44-4.07v-40.39c0-1.63.49-2.96,1.48-4,.98-1.03,2.27-1.55,3.85-1.55,1.77,0,3.14.62,4.1,1.87l24.12,30.67v-27c0-1.63.48-2.96,1.44-4,.96-1.03,2.21-1.55,3.74-1.55s2.87.52,3.85,1.55Z"/><path d="m117.63,442.03c0,1.39-.54,2.6-1.62,3.64-1.08,1.03-2.32,1.55-3.71,1.55s-2.66-.6-3.67-1.8l-13.54-16.56-13.68,16.56c-1.06,1.2-2.28,1.8-3.67,1.8s-2.56-.51-3.64-1.55c-1.08-1.03-1.62-2.24-1.62-3.64,0-1.2.43-2.3,1.3-3.31l14.76-17.57-14.26-17.06c-.91-1.05-1.37-2.16-1.37-3.31,0-1.39.54-2.6,1.62-3.64,1.08-1.03,2.29-1.55,3.64-1.55,1.44,0,2.69.62,3.74,1.87l13.18,15.91,13.03-15.91c1.06-1.25,2.3-1.87,3.74-1.87,1.34,0,2.56.52,3.64,1.55s1.62,2.24,1.62,3.64c0,1.2-.43,2.3-1.3,3.31l-14.26,17.06,14.69,17.57c.91,1.06,1.37,2.16,1.37,3.31Z"/><path d="m125.9,445.7c-1.01-1.01-1.51-2.38-1.51-4.1v-40.32c0-1.68.46-2.98,1.37-3.89.91-.91,2.21-1.37,3.89-1.37h18.07c5.52,0,9.82,1.39,12.89,4.18,3.07,2.78,4.61,6.67,4.61,11.66s-1.54,8.88-4.61,11.66c-3.07,2.78-7.37,4.18-12.89,4.18h-12.1v13.9c0,1.73-.5,3.1-1.51,4.1-1.01,1.01-2.38,1.51-4.1,1.51s-3.1-.5-4.1-1.51Zm20.38-26.5c5.62,0,8.42-2.42,8.42-7.27s-2.81-7.34-8.42-7.34h-10.66v14.62h10.66Z"/></g></g></svg>