<?xml version="1.0" encoding="UTF-8"?><svg id="Calque_1" xmlns="http://www.w3.org/2000/svg" viewBox="0 0 512 512"><defs><style>.cls-1{fill:#fff;}</style></defs><path d="m502,10v163.1h-163.1V10h163.1m6-10h-175.1c-2.2,0-4,1.8-4,4v175.1c0,2.2,1.8,4,4,4h175.1c2.2,0,4-1.8,4-4V4c0-2.2-1.8-4-4-4h0Z"/><rect class="cls-1" x="338.9" y="10" width="163.1" height="163.1"/><g><path class="cls-1" d="m492.47,69.44v94.06h-144V19.5h144v47.9q0-.15-.15-.29c-.29-1.16-.44-2.47-.87-3.63-.87-2.76-2.61-4.94-4.94-6.53-2.61-2.03-5.66-2.9-9-2.9h-114.39c-3.63,0-6.97,1.02-9.73,3.48-4.06,3.63-5.66,8.13-4.79,13.5.29,1.89.58,3.77.87,5.66.73,4.65,1.6,9.15,2.32,13.79.73,4.79,1.6,9.58,2.32,14.23.73,4.06,1.31,8.27,2.03,12.34.58,3.05,1.89,5.66,4.21,7.84,2.9,2.76,6.39,4.06,10.31,4.06h99.15c3.05,0,5.95-.73,8.42-2.47,3.05-2.03,4.94-4.94,5.81-8.56.29-1.45.58-2.76.73-4.21.73-4.65,1.6-9.15,2.32-13.79s1.6-9.15,2.32-13.79c.73-4.65,1.6-9.15,2.32-13.79.44-.87.58-1.89.73-2.9Z"/><path d="m492.47,69.44c-.15,1.02-.29,1.89-.44,2.9-.73,4.65-1.6,9.15-2.32,13.79-.73,4.65-1.6,9.15-2.32,13.79-.73,4.65-1.6,9.15-2.32,13.79-.29,1.45-.44,2.9-.73,4.21-.87,3.63-2.76,6.39-5.81,8.56-2.47,1.74-5.37,2.47-8.42,2.47h-99.15c-3.92,0-7.4-1.31-10.31-4.06-2.18-2.18-3.63-4.79-4.21-7.84-.73-4.06-1.45-8.27-2.03-12.34-.73-4.79-1.6-9.58-2.32-14.23-.73-4.65-1.6-9.15-2.32-13.79-.29-1.89-.58-3.77-.87-5.66-.87-5.37.73-9.87,4.79-13.5,2.76-2.47,6.1-3.48,9.73-3.48h114.39c3.34,0,6.39.87,9,2.9,2.32,1.74,4.06,3.92,4.94,6.53.44,1.16.58,2.47.87,3.63q0,.15.15.29c-.29.73-.29,1.45-.29,2.03Zm-112.35,10.6c0-3.19-2.61-5.81-5.81-5.81s-5.81,2.61-5.81,5.81,2.61,5.81,5.81,5.81c3.34-.15,5.81-2.61,5.81-5.81Zm17.27,5.81c3.19,0,5.81-2.61,5.81-5.81s-2.61-5.81-5.81-5.81-5.81,2.61-5.81,5.81c.15,3.19,2.61,5.81,5.81,5.81Zm28.74-5.81c0-3.19-2.61-5.81-5.81-5.81s-5.81,2.61-5.81,5.81,2.61,5.81,5.81,5.81c3.34-.15,5.95-2.61,5.81-5.81Zm23.08,0c0-3.19-2.61-5.81-5.81-5.81s-5.81,2.61-5.81,5.66,2.61,5.81,5.81,5.81,5.81-2.47,5.81-5.66Zm17.27,5.81c3.19,0,5.81-2.61,5.81-5.81s-2.61-5.81-5.81-5.81-5.81,2.61-5.81,5.81,2.61,5.81,5.81,5.81Zm-74.9,17.27c0-3.19-2.61-5.81-5.66-5.81s-5.81,2.61-5.81,5.66,2.61,5.81,5.81,5.81,5.66-2.61,5.66-5.66Zm23.08,0c0-3.19-2.61-5.81-5.81-5.81s-5.81,2.61-5.81,5.66,2.61,5.81,5.81,5.81,5.81-2.61,5.81-5.66Zm23.08-.15c0-3.19-2.61-5.81-5.81-5.81s-5.81,2.61-5.81,5.81,2.61,5.81,5.81,5.81,5.81-2.61,5.81-5.81Zm17.27,5.81c3.19,0,5.81-2.61,5.81-5.81s-2.61-5.81-5.66-5.81-5.81,2.61-5.81,5.81c-.15,3.19,2.47,5.81,5.66,5.81Z"/><path class="cls-1" d="m380.11,80.03c0,3.19-2.61,5.81-5.66,5.81s-5.81-2.61-5.81-5.81,2.61-5.81,5.81-5.81,5.66,2.61,5.66,5.81Z"/><path class="cls-1" d="m397.39,85.84c-3.19,0-5.81-2.61-5.81-5.81s2.61-5.81,5.81-5.81,5.81,2.61,5.81,5.81-2.61,5.66-5.81,5.81Z"/><path class="cls-1" d="m426.13,80.03c0,3.19-2.61,5.81-5.66,5.81s-5.81-2.61-5.81-5.81,2.61-5.81,5.81-5.81,5.66,2.61,5.66,5.81Z"/><path class="cls-1" d="m449.21,80.03c0,3.19-2.61,5.81-5.81,5.81s-5.81-2.61-5.81-5.81,2.61-5.81,5.81-5.66c3.19-.15,5.81,2.47,5.81,5.66Z"/><path class="cls-1" d="m466.48,85.84c-3.19,0-5.81-2.61-5.81-5.81s2.61-5.81,5.81-5.81,5.81,2.61,5.81,5.81-2.61,5.81-5.81,5.81Z"/><path class="cls-1" d="m391.58,103.11c0,3.19-2.61,5.81-5.81,5.81s-5.81-2.61-5.81-5.81,2.61-5.66,5.81-5.66c3.34-.15,5.95,2.47,5.81,5.66Z"/><path class="cls-1" d="m414.66,103.11c0,3.19-2.61,5.81-5.81,5.81s-5.81-2.61-5.81-5.81,2.61-5.81,5.81-5.66c3.19-.15,5.81,2.47,5.81,5.66Z"/><path class="cls-1" d="m437.74,102.97c0,3.19-2.61,5.81-5.66,5.81s-5.81-2.61-5.81-5.81,2.61-5.81,5.81-5.81c3.05.15,5.66,2.76,5.66,5.81Z"/><path class="cls-1" d="m455.02,108.77c-3.19,0-5.81-2.61-5.81-5.81s2.61-5.81,5.81-5.81,5.81,2.61,5.66,5.81c0,3.19-2.47,5.81-5.66,5.81Z"/></g></svg>