<?xml version="1.0" encoding="utf-8"?>
<!-- Generator: Adobe Illustrator 16.0.0, SVG Export Plug-In . SVG Version: 6.00 Build 0)  -->
<!DOCTYPE svg PUBLIC "-//W3C//DTD SVG 1.1//EN" "http://www.w3.org/Graphics/SVG/1.1/DTD/svg11.dtd">
<svg version="1.1" xmlns="http://www.w3.org/2000/svg" xmlns:xlink="http://www.w3.org/1999/xlink" x="0px" y="0px"
	 width="425.201px" height="425.201px" viewBox="0 0 425.201 425.201" enable-background="new 0 0 425.201 425.201"
	 xml:space="preserve">
<g id="Layer_2">
	<g>
		<g>
			<path d="M236.521,130.473c-0.748,0.665-1.91,0.665-2.657-0.083c-8.555-9.135-22.922-9.633-32.057-1.079
				c-0.747,0.664-1.91,0.664-2.657-0.083c-0.665-0.748-0.665-1.91,0.083-2.658c10.63-9.965,27.405-9.384,37.288,1.329
				C237.351,128.563,237.268,129.809,236.521,130.473z"/>
			<path d="M247.151,120.591c-0.747,0.665-1.91,0.665-2.657-0.083c-13.952-15.031-37.537-15.778-52.569-1.826
				c-0.747,0.664-1.91,0.664-2.657-0.084c-0.664-0.747-0.664-1.909,0.083-2.657c16.526-15.363,42.438-14.45,57.801,1.993
				C247.981,118.681,247.898,119.927,247.151,120.591z"/>
			<path d="M257.283,111.124c-0.748,0.664-1.91,0.664-2.657-0.083c-19.185-20.596-51.489-21.676-72.085-2.491
				c-0.748,0.664-1.91,0.664-2.658-0.083c-0.664-0.748-0.664-1.91,0.084-2.658c22.09-20.596,56.804-19.35,77.316,2.741
				C258.03,109.297,258.03,110.46,257.283,111.124z"/>
		</g>
		<g>
			<path d="M233.864,287.681c-0.748-0.664-1.91-0.664-2.658,0.083c-8.554,9.135-22.921,9.634-32.056,1.08
				c-0.748-0.665-1.91-0.665-2.658,0.083c-0.664,0.747-0.664,1.91,0.084,2.657c10.63,9.966,27.405,9.384,37.288-1.329
				C234.611,289.592,234.611,288.345,233.864,287.681z"/>
			<path d="M244.411,297.564c-0.748-0.665-1.91-0.665-2.658,0.083c-13.951,15.031-37.537,15.778-52.568,1.827
				c-0.747-0.665-1.91-0.665-2.657,0.083c-0.665,0.747-0.665,1.91,0.083,2.657c16.526,15.363,42.437,14.45,57.801-1.993
				C245.241,299.474,245.158,298.228,244.411,297.564z"/>
			<path d="M254.542,307.031c-0.747-0.664-1.909-0.664-2.657,0.083c-19.184,20.596-51.489,21.676-72.085,2.492
				c-0.747-0.665-1.909-0.665-2.657,0.083c-0.664,0.747-0.664,1.91,0.083,2.657c22.091,20.596,56.805,19.35,77.316-2.74
				C255.373,308.858,255.29,307.696,254.542,307.031z"/>
		</g>
	</g>
	<g>
		<path d="M214.596,265.342H186.61V157.381h44.596c25.496,0,41.938,15.114,41.938,38.451c0,23.502-17.356,38.782-44.181,38.782
			h-14.45v30.728H214.596z M192.008,259.944h17.108v-30.728h19.848c23.502,0,38.783-13.121,38.783-33.302
			c0-20.347-14.035-33.053-36.541-33.053h-39.198V259.944z M229.712,214.517h-20.596v-36.79h20.18
			c13.205,0,21.011,6.81,21.011,18.271C250.306,207.043,242.085,214.517,229.712,214.517z M214.596,209.036h15.198
			c9.218,0,15.197-5.148,15.197-13.121c0-11.129-9.8-12.789-15.613-12.789h-14.699L214.596,209.036L214.596,209.036z"/>
	</g>
	<g>
		<path d="M213.018,46.181c-91.518,0-165.928,74.409-165.928,165.928c0,91.518,74.41,165.928,165.928,165.928
			c91.519,0,165.929-74.41,165.929-165.928C378.947,120.591,304.537,46.181,213.018,46.181z M213.018,365.413
			c-84.541,0-153.304-68.763-153.304-153.304c0-84.542,68.763-153.305,153.304-153.305c84.542,0,153.306,68.763,153.306,153.305
			C366.324,296.65,297.56,365.413,213.018,365.413z"/>
	</g>
</g>
<g id="Calque_1">
	<g>
		<path d="M416.896,8.304v135.45h-135.45V8.304H416.896 M421.879,0H276.464c-1.827,0-3.322,1.495-3.322,3.322v145.415
			c0,1.827,1.495,3.322,3.322,3.322h145.415c1.827,0,3.322-1.495,3.322-3.322V3.322C425.201,1.495,423.706,0,421.879,0L421.879,0z"
			/>
	</g>
	<g display="none">
		<g display="inline">
			<path stroke="#000000" stroke-miterlimit="10" d="M148.737,273.141H3.322c-1.827,0-3.322,1.495-3.322,3.322v145.498
				c0,1.827,1.495,3.322,3.322,3.322H148.82c1.827,0,3.322-1.495,3.322-3.322V276.464
				C152.059,274.636,150.564,273.141,148.737,273.141z M143.755,416.978H8.304V281.446h135.45V416.978z"/>
		</g>
	</g>
	<g display="none">
		<g display="inline">
			<path d="M235.521,128.473c-0.748,0.665-1.91,0.665-2.657-0.083c-8.555-9.135-22.922-9.633-32.057-1.079
				c-0.747,0.664-1.91,0.664-2.657-0.083c-0.665-0.748-0.665-1.91,0.083-2.658c10.63-9.965,27.405-9.384,37.288,1.329
				C236.351,126.563,236.268,127.809,235.521,128.473z"/>
			<path d="M246.151,118.591c-0.747,0.665-1.91,0.665-2.657-0.083c-13.952-15.031-37.537-15.778-52.569-1.826
				c-0.747,0.664-1.91,0.664-2.657-0.084c-0.664-0.747-0.664-1.909,0.083-2.657c16.526-15.363,42.438-14.45,57.801,1.993
				C246.981,116.681,246.898,117.927,246.151,118.591z"/>
			<path d="M256.283,109.124c-0.748,0.664-1.91,0.664-2.657-0.083c-19.185-20.596-51.489-21.676-72.085-2.491
				c-0.748,0.664-1.91,0.664-2.658-0.083c-0.664-0.748-0.664-1.91,0.084-2.658c22.09-20.596,56.804-19.35,77.316,2.741
				C257.03,107.297,257.03,108.46,256.283,109.124z"/>
		</g>
		<g display="inline">
			<path d="M232.864,285.681c-0.748-0.664-1.91-0.664-2.658,0.083c-8.554,9.135-22.921,9.634-32.056,1.08
				c-0.748-0.665-1.91-0.665-2.658,0.083c-0.664,0.747-0.664,1.91,0.084,2.657c10.63,9.966,27.405,9.384,37.288-1.329
				C233.611,287.592,233.611,286.345,232.864,285.681z"/>
			<path d="M243.411,295.564c-0.748-0.665-1.91-0.665-2.658,0.083c-13.951,15.031-37.537,15.778-52.568,1.827
				c-0.747-0.665-1.91-0.665-2.657,0.083c-0.665,0.747-0.665,1.91,0.083,2.657c16.526,15.363,42.437,14.45,57.801-1.993
				C244.241,297.474,244.158,296.228,243.411,295.564z"/>
			<path d="M253.542,305.031c-0.747-0.664-1.909-0.664-2.657,0.083c-19.184,20.596-51.489,21.676-72.085,2.492
				c-0.747-0.665-1.909-0.665-2.657,0.083c-0.664,0.747-0.664,1.91,0.083,2.657c22.091,20.596,56.805,19.35,77.316-2.74
				C254.373,306.858,254.29,305.696,253.542,305.031z"/>
		</g>
	</g>
	<g display="none">
		<path display="inline" d="M219.908,260.02c-16.443,0-32.056-5.896-44.098-16.609l-1.91-1.661l16.277-19.517l1.993,1.661
			c9.55,7.89,18.437,11.544,28.152,11.544c3.571,0,11.793-0.665,11.793-7.06c0-3.321-1.245-5.813-18.104-10.132
			c-19.184-4.899-35.045-10.796-35.045-33.385c0-19.267,15.446-32.72,37.62-32.72c14.699,0,27.737,4.484,38.699,13.287l1.91,1.495
			l-14.284,20.762l-2.159-1.495c-9.052-6.312-17.107-9.385-24.415-9.385c-6.396,0-10.215,2.409-10.215,6.313
			c0,4.152,1.577,5.979,19.516,10.547c20.181,5.231,33.634,12.872,33.634,32.803C259.189,246.815,243.743,260.02,219.908,260.02z
			 M181.209,241.085c10.796,8.804,24.415,13.62,38.699,13.62c21.011,0,33.967-10.879,33.967-28.319
			c0-14.533-8.056-22.007-29.648-27.654c-17.024-4.401-23.502-6.893-23.502-15.695c0-5.398,4.069-11.627,15.446-11.627
			c7.89,0,16.111,2.906,25.247,8.803l8.471-12.374c-9.634-7.059-20.845-10.63-33.468-10.63c-19.351,0-32.306,11.045-32.306,27.488
			c0,17.357,9.634,22.755,31.06,28.236c15.28,3.903,22.091,7.059,22.091,15.28c0,7.641-6.562,12.374-17.025,12.374
			c-10.215,0-19.682-3.57-29.398-11.045L181.209,241.085z"/>
	</g>
	<g display="none">
		<path display="inline" d="M59.462,210.773c0-83.711,68.099-151.893,151.893-151.893c22.008,0,42.853,4.733,61.704,13.121
			c0.166-4.484,0.498-8.886,0.747-13.37c-19.267-7.973-40.36-12.374-62.451-12.374c-90.688,0-164.433,73.745-164.433,164.433
			c0,23.668,4.982,46.091,14.035,66.438c4.733,0,9.218,0,13.868,0C65.026,257.113,59.462,234.524,59.462,210.773z"/>
		<path display="inline" d="M364.908,151.809c-4.567,0.499-9.384-0.83-13.951-0.913c7.889,18.354,12.291,38.617,12.291,59.794
			c0,83.711-68.099,151.893-151.894,151.893c-22.921,0-44.679-5.148-64.195-14.201c0.498,4.567,1.495,9.385,0.083,13.786
			c19.683,8.388,41.357,13.038,64.112,13.038c90.688,0,164.434-73.745,164.434-164.433
			C375.788,190.011,371.885,170.163,364.908,151.809z"/>
	</g>
	<g display="none">
		<path display="inline" d="M213.596,263.342H185.61V155.381h44.596c25.496,0,41.938,15.114,41.938,38.451
			c0,23.502-17.356,38.782-44.181,38.782h-14.45v30.728H213.596z M191.008,257.944h17.108v-30.728h19.848
			c23.502,0,38.783-13.121,38.783-33.302c0-20.347-14.035-33.053-36.541-33.053h-39.198V257.944z M228.712,212.517h-20.596v-36.79
			h20.18c13.205,0,21.011,6.81,21.011,18.271C249.306,205.043,241.085,212.517,228.712,212.517z M213.596,207.036h15.198
			c9.218,0,15.197-5.148,15.197-13.121c0-11.129-9.8-12.789-15.613-12.789h-14.699L213.596,207.036L213.596,207.036z"/>
	</g>
	<path display="none" d="M354.777,101.566h-23.42V52.569h22.838c5.564,0,10.132,1.577,13.039,4.484
		c2.408,2.408,3.57,5.314,3.57,8.886c0,4.152-1.577,7.392-4.733,9.8c5.065,2.491,7.392,6.229,7.392,11.792
		C373.38,96.335,366.403,101.566,354.777,101.566z M333.848,99.158h20.929c6.062,0,16.193-1.495,16.193-11.543
		c0-5.232-2.325-8.305-7.889-10.381l-2.492-0.914l2.325-1.246c3.737-2.076,5.481-4.982,5.481-8.969c0-2.989-0.913-5.231-2.823-7.142
		c-2.491-2.491-6.395-3.737-11.295-3.737h-20.43V99.158z M354.777,92.597h-13.454V79.891h13.038c7.641,0,8.804,3.903,8.804,6.312
		C363.248,88.611,362.085,92.597,354.777,92.597z M343.814,90.189h10.963c5.979,0,5.979-2.99,5.979-3.986c0-0.914,0-3.82-6.312-3.82
		h-10.63V90.189z M352.036,73.829h-10.713V61.538h11.294c4.983,0,7.973,2.242,7.973,5.979
		C360.59,69.926,359.51,73.829,352.036,73.829z M343.814,71.421h8.222c6.146,0,6.146-2.741,6.146-3.82
		c0-2.907-2.989-3.571-5.48-3.571h-8.887V71.421z"/>
	<g display="none">
		<path display="inline" d="M336.258,101.732h-23.337V52.901h22.755c5.564,0,10.049,1.578,13.039,4.484
			c2.408,2.408,3.57,5.315,3.57,8.886c0,4.152-1.577,7.392-4.733,9.8c5.065,2.491,7.309,6.229,7.309,11.793
			C354.86,96.501,347.884,101.732,336.258,101.732z M315.413,99.324h20.845c6.063,0,16.11-1.495,16.11-11.543
			c0-5.232-2.325-8.222-7.889-10.381l-2.409-0.914l2.326-1.245c3.736-2.076,5.48-4.9,5.48-8.97c0-2.989-0.913-5.231-2.823-7.142
			c-2.491-2.491-6.312-3.737-11.295-3.737h-20.346V99.324z M336.258,92.763h-13.371V80.14h13.038c7.641,0,8.804,3.903,8.804,6.229
			C344.728,88.777,343.565,92.763,336.258,92.763z M325.378,90.355h10.88c5.979,0,5.979-2.99,5.979-3.986c0-0.914,0-3.82-6.312-3.82
			h-10.547V90.355z M333.516,74.078h-10.63V61.787h11.295c4.982,0,7.889,2.242,7.889,5.979
			C342.153,70.175,340.991,74.078,333.516,74.078z M325.378,71.67h8.222c6.146,0,6.146-2.74,6.146-3.82
			c0-2.906-2.989-3.571-5.48-3.571h-8.887V71.67L325.378,71.67z"/>
		<path display="inline" d="M399.871,101.898h-35.793V52.984h12.706v37.122h23.17L399.871,101.898L399.871,101.898z M366.569,99.407
			h30.894v-6.81h-23.17V55.475h-7.724V99.407L366.569,99.407z"/>
	</g>
	<g display="none">
		<path display="inline" d="M350.375,101.566c-14.283,0-25.08-10.547-25.08-24.499c0-13.702,11.046-24.498,25.246-24.498
			c14.284,0,25.081,10.547,25.081,24.498C375.539,90.77,364.493,101.566,350.375,101.566z M350.458,54.894
			c-12.789,0-22.838,9.716-22.838,22.09c0,12.623,9.717,22.091,22.672,22.091c12.79,0,22.838-9.717,22.838-22.091
			C373.13,64.444,363.414,54.894,350.458,54.894z M350.458,92.431c-8.305,0-14.865-6.727-14.865-15.364
			c0-8.72,6.312-15.363,14.699-15.363c8.305,0,14.866,6.727,14.866,15.363C365.158,85.788,358.845,92.431,350.458,92.431z
			 M350.375,64.112c-7.059,0-12.291,5.564-12.291,12.955c0,7.392,5.398,12.956,12.457,12.956c7.06,0,12.291-5.564,12.291-12.956
			C362.832,69.677,357.434,64.112,350.375,64.112z"/>
	</g>
	<g display="none">
		<polyline display="inline" fill="none" stroke="#000000" stroke-width="4.4117" stroke-miterlimit="10" points="348.798,105.137 
			363.414,90.936 349.296,76.32 349.296,76.071 349.296,75.739 363.912,61.621 349.794,47.005 		"/>
		<polyline display="inline" fill="none" stroke="#000000" stroke-width="4.4117" stroke-miterlimit="10" points="363.912,61.621 
			349.296,75.739 349.047,75.988 334.347,90.189 		"/>
		<polyline display="inline" fill="none" stroke="#000000" stroke-width="4.4117" stroke-miterlimit="10" points="334.845,61.372 
			349.047,75.988 349.296,76.32 363.414,90.936 		"/>
		<polyline display="inline" fill="none" stroke="#000000" stroke-width="4.4117" stroke-miterlimit="10" points="348.798,105.137 
			349.296,76.32 349.296,76.071 349.296,75.739 349.794,47.005 		"/>
	</g>
	<path display="none" fill="none" stroke="#000000" stroke-width="13" stroke-miterlimit="10" d="M45.925,273.141V47.586
		c0-1.827,1.495-3.321,3.322-3.321h223.895"/>
	<path display="none" fill="none" stroke="#000000" stroke-width="13" stroke-miterlimit="10" d="M377.033,152.059v222.648
		c0,1.827-1.494,3.322-3.321,3.322H152.059"/>
	<path display="none" fill="none" stroke="#000000" stroke-width="8" stroke-miterlimit="10" d="M305.281,152.059v11.377
		c-2.492,0.498-4.401,2.74-4.401,5.398c0,2.657,1.909,4.899,4.401,5.397v17.855c-2.492,0.498-4.401,2.74-4.401,5.397
		c0,2.658,1.909,4.9,4.401,5.398v17.855c-2.492,0.498-4.401,2.74-4.401,5.397c0,2.658,1.909,4.9,4.401,5.398v17.855
		c-2.492,0.498-4.401,2.74-4.401,5.397s1.909,4.899,4.401,5.398v18.021c-2.492,0.499-4.401,2.741-4.401,5.398
		s1.909,4.899,4.401,5.398v17.854c-2.492,0.498-4.401,2.741-4.401,5.398s1.909,4.899,4.401,5.397v17.855
		c-2.492,0.498-4.401,2.74-4.401,5.398c0,2.657,1.909,4.899,4.401,5.397v24.416H152.059"/>
	<path display="none" fill="none" stroke="#000000" stroke-width="8" stroke-miterlimit="10" d="M128.722,273.141v-12.789
		c0.332,0.083,0.748,0.083,1.08,0.083c3.072,0,5.48-2.491,5.48-5.481c0-3.072-2.491-5.48-5.48-5.48c-0.415,0-0.748,0-1.08,0.083
		v-17.855c0.332,0.083,0.748,0.083,1.08,0.083c3.072,0,5.48-2.491,5.48-5.481c0-3.072-2.491-5.48-5.48-5.48
		c-0.415,0-0.748,0.083-1.08,0.083V203.05c0.332,0.083,0.748,0.083,1.08,0.083c3.072,0,5.48-2.491,5.48-5.48
		c0-3.073-2.491-5.481-5.48-5.481c-0.415,0-0.748,0-1.08,0.083v-17.855c0.332,0.083,0.748,0.083,1.08,0.083
		c3.072,0,5.48-2.491,5.48-5.48c0-3.073-2.491-5.481-5.48-5.481c-0.415,0-0.748,0-1.08,0.083v-17.854
		c0.332,0.083,0.748,0.083,1.08,0.083c3.072,0,5.48-2.492,5.48-5.481c0-2.99-2.491-5.481-5.48-5.481
		c-0.415,0-0.748,0.083-1.08,0.083v-17.854c0.332,0.083,0.748,0.083,1.08,0.083c3.072,0,5.48-2.491,5.48-5.564
		c0-3.072-2.491-5.481-5.48-5.481c-0.415,0-0.748,0-1.08,0.084V88.362c0.332,0.083,0.748,0.083,1.08,0.083
		c3.072,0,5.48-2.491,5.48-5.481c0-2.989-2.491-5.563-5.48-5.563c-0.415,0-0.748,0.083-1.08,0.083V55.226h24.416
		c0.498,2.491,2.74,4.401,5.398,4.401c2.657,0,4.899-1.91,5.397-4.401h109.207"/>
	<g display="none">
		<path display="inline" d="M191.507,209.942h-7.226v-15.695l-6.395,9.717h-0.747l-0.332-0.333l-6.146-9.301v15.613h-7.143v-27.987
			h7.392l6.561,10.63l6.561-10.63h7.392L191.507,209.942z M185.693,208.531h4.401v-25.163h-5.232l-7.391,11.875l-7.392-11.875
			h-5.231v25.163h4.318v-18.852l8.222,12.457l8.222-12.54L185.693,208.531z"/>
	</g>
	<g display="none">
		<path display="inline" d="M241.833,210.192h-7.143v-20.513l-4.401,1.079l-1.577-6.063l8.388-2.491h4.65L241.833,210.192
			L241.833,210.192z M236.102,208.78h4.318v-25.163h-3.155l-6.811,2.076l0.831,3.404l4.816-1.162V208.78z"/>
	</g>
	<g display="none">
		<path display="inline" d="M212.102,210.607c-3.986,0-7.392-1.329-10.298-4.152l-0.499-0.415l4.318-5.232l0.499,0.498
			c1.993,1.827,3.819,2.658,5.813,2.658c1.412,0,3.654-0.416,3.654-2.99c0-2.076-2.076-2.823-3.903-2.823
			c-1.328,0-2.657,0.332-4.069,0.913l-0.332,0.166l-3.986-2.657l0.831-13.952h17.439v6.395h-11.211l-0.166,2.907
			c0.747-0.166,1.577-0.249,2.657-0.249c6.146,0,9.883,3.404,9.883,9.135C222.732,206.787,218.497,210.607,212.102,210.607z
			 M203.216,205.957c2.574,2.242,5.398,3.321,8.803,3.321c5.73,0,9.219-3.238,9.219-8.388c0-6.727-5.315-7.724-8.471-7.724
			c-1.412,0-2.325,0.166-3.239,0.416l-0.913,0.249l0.415-6.146h11.128v-3.654h-14.699l-0.664,11.876l2.657,1.744
			c1.495-0.582,2.907-0.914,4.318-0.914c3.239,0,5.315,1.661,5.315,4.235c0,2.741-1.91,4.401-5.066,4.401
			c-2.159,0-4.069-0.83-6.146-2.574L203.216,205.957z"/>
	</g>
	<g display="none">
		<path display="inline" d="M258.442,209.527c-3.488,0-6.229-0.996-8.886-3.238l-0.499-0.415l3.737-5.398l0.581,0.498
			c1.827,1.495,3.322,2.076,5.232,2.076c2.657,0,3.82-1.91,4.235-3.737c-1.246,0.665-2.657,0.997-4.235,0.997
			c-6.063,0-9.883-3.488-9.883-9.053c0-5.646,4.401-9.716,10.464-9.716c3.571,0,5.73,0.83,7.89,2.989
			c2.242,2.242,3.239,5.481,3.239,10.298C270.401,203.881,265.833,209.527,258.442,209.527z M250.968,205.624
			c2.242,1.744,4.651,2.492,7.558,2.492c6.644,0,10.547-4.983,10.547-13.371c0-4.401-0.913-7.391-2.823-9.301
			s-3.737-2.575-6.977-2.575c-5.397,0-9.135,3.405-9.135,8.305c0,4.817,3.155,7.724,8.554,7.724c1.91,0,3.571-0.498,4.816-1.578
			l1.329-1.079l-0.166,1.661c-0.415,4.069-2.574,6.478-5.896,6.478c-1.993,0-3.654-0.581-5.481-1.91L250.968,205.624z
			 M259.521,195.576c-3.072,0-5.148-1.827-5.148-4.568c0-2.823,1.993-4.65,5.065-4.65c3.073,0,5.232,1.827,5.232,4.65
			C264.671,193.749,262.594,195.576,259.521,195.576z M259.438,187.769c-2.325,0-3.653,1.245-3.653,3.321
			c0,1.993,1.494,3.156,3.819,3.156c2.326,0,3.737-1.246,3.737-3.239C263.259,189.014,261.763,187.769,259.438,187.769z"/>
	</g>
	<path display="none" fill="none" stroke="#000000" stroke-width="8" stroke-miterlimit="10" d="M129.47,347.053
		c3.072,0,5.563-2.492,5.563-5.564c0-3.073-2.491-5.564-5.563-5.564c-0.416,0-0.748,0-1.08,0.083V318.07
		c0.332,0.083,0.748,0.083,1.08,0.083c3.072,0,5.563-2.492,5.563-5.564c0-3.073-2.491-5.564-5.563-5.564
		c-0.416,0-0.748,0-1.08,0.083v-18.021c0.332,0.083,0.748,0.083,1.08,0.083c3.072,0,5.563-2.492,5.563-5.564
		c0-3.073-2.491-5.564-5.563-5.564c-0.416,0-0.748,0-1.08,0.083v-18.021c0.332,0.083,0.748,0.083,1.08,0.083
		c3.072,0,5.563-2.492,5.563-5.564c0-3.073-2.491-5.564-5.563-5.564c-0.416,0-0.748,0-1.08,0.083V231.12
		c0.332,0.083,0.748,0.083,1.08,0.083c3.072,0,5.563-2.492,5.563-5.564s-2.491-5.564-5.563-5.564c-0.416,0-0.748,0-1.08,0.083
		v-18.021c0.332,0.083,0.748,0.083,1.08,0.083c3.072,0,5.563-2.491,5.563-5.564c0-3.072-2.491-5.564-5.563-5.564
		c-0.416,0-0.748,0-1.08,0.083v-17.605c0.332,0.083,0.748,0.083,1.08,0.083c3.072,0,5.563-2.491,5.563-5.564
		c0-3.072-2.491-5.563-5.563-5.563c-0.416,0-0.748,0-1.08,0.083v-18.021c0.332,0.083,0.748,0.083,1.08,0.083
		c3.072,0,5.563-2.491,5.563-5.564c0-3.072-2.491-5.563-5.563-5.563c-0.416,0-0.748,0-1.08,0.083v-18.021
		c0.332,0.083,0.748,0.083,1.08,0.083c3.072,0,5.563-2.491,5.563-5.564c0-3.072-2.491-5.563-5.563-5.563
		c-0.416,0-0.748,0-1.08,0.083V86.618c0.332,0.083,0.748,0.083,1.08,0.083c3.072,0,5.563-2.491,5.563-5.564
		c0-3.072-2.491-5.563-5.563-5.563c-0.416,0-0.748,0-1.08,0.083V53.731h24.582c0.498,2.574,2.74,4.484,5.481,4.484
		c2.657,0,4.899-1.91,5.48-4.484h142.343v22.34c-2.574,0.498-4.484,2.74-4.484,5.481c0,2.657,1.91,4.899,4.484,5.48v18.021
		c-2.574,0.498-4.484,2.74-4.484,5.481c0,2.657,1.91,4.899,4.484,5.48v18.021c-2.574,0.498-4.484,2.74-4.484,5.481
		c0,2.657,1.91,4.899,4.484,5.48v18.021c-2.574,0.498-4.484,2.74-4.484,5.481c0,2.657,1.91,4.899,4.484,5.48v18.021
		c-2.574,0.498-4.484,2.74-4.484,5.481c0,2.657,1.91,4.899,4.484,5.48v18.021c-2.574,0.498-4.484,2.74-4.484,5.48
		c0,2.658,1.91,4.9,4.484,5.481v18.021c-2.574,0.498-4.484,2.74-4.484,5.48c0,2.658,1.91,4.9,4.484,5.481v18.021
		c-2.574,0.498-4.484,2.74-4.484,5.48c0,2.658,1.91,4.9,4.484,5.481v18.021c-2.574,0.498-4.484,2.74-4.484,5.48
		c0,2.658,1.91,4.9,4.484,5.481v18.021c-2.574,0.498-4.484,2.74-4.484,5.48c0,2.658,1.91,4.9,4.484,5.481v24.582H128.39v-24.582
		C128.722,347.053,129.054,347.053,129.47,347.053z"/>
	<g display="none">
		<path display="inline" d="M212.018,44.181c-91.518,0-165.928,74.409-165.928,165.928c0,91.518,74.41,165.928,165.928,165.928
			c91.519,0,165.929-74.41,165.929-165.928C377.947,118.591,303.537,44.181,212.018,44.181z M212.018,363.413
			c-84.541,0-153.304-68.763-153.304-153.304c0-84.542,68.763-153.305,153.304-153.305c84.542,0,153.306,68.763,153.306,153.305
			C365.324,294.65,296.56,363.413,212.018,363.413z"/>
	</g>
	<path display="none" fill="none" stroke="#000000" stroke-width="15.7955" stroke-miterlimit="10" d="M368.23,376.12H55.807
		c-4.069,0-7.474-3.322-7.474-7.475V56.305c0-4.069,3.321-7.474,7.474-7.474h312.34c4.069,0,7.475,3.321,7.475,7.474v312.423
		C375.622,372.798,372.3,376.12,368.23,376.12z"/>
	
		<rect x="8.304" y="281.446" display="none" fill="#FFFFFF" stroke="#000000" stroke-miterlimit="10" width="135.533" height="135.532"/>
	
		<rect x="281.446" y="8.221" display="none" fill="#FFFFFF" stroke="#000000" stroke-miterlimit="10" width="135.532" height="135.533"/>
	<g display="none">
		
			<line display="inline" fill="none" stroke="#000000" stroke-width="6" stroke-miterlimit="10" x1="62.036" y1="326.042" x2="35.461" y2="352.617"/>
		
			<line display="inline" fill="none" stroke="#000000" stroke-width="6" stroke-miterlimit="10" x1="33.135" y1="353.282" x2="126.231" y2="353.282"/>
	</g>
	<g display="none">
		
			<line display="inline" fill="none" stroke="#000000" stroke-width="6" stroke-miterlimit="10" x1="97.331" y1="391.317" x2="123.906" y2="364.742"/>
		
			<line display="inline" fill="none" stroke="#000000" stroke-width="6" stroke-miterlimit="10" x1="126.231" y1="364.078" x2="33.135" y2="364.078"/>
	</g>
	
		<text transform="matrix(1 0 0 1 18.3318 364.9822)" display="none" enable-background="new    " font-family="'Nunito-Regular'" font-size="55.9789">RDR</text>
	<g display="none">
		<g display="inline">
			<path d="M34.133,325.461c1.91,1.246,3.404,2.99,4.401,5.232c1.079,2.242,1.578,4.816,1.578,7.806c0,2.99-0.499,5.564-1.578,7.724
				c-1.08,2.242-2.491,3.903-4.401,5.149c-1.91,1.245-4.069,1.827-6.644,1.827c-2.243,0-4.152-0.499-5.813-1.495
				c-1.661-0.997-2.907-2.325-3.737-4.152v13.702c0,0.665-0.166,1.246-0.581,1.661c-0.416,0.415-0.997,0.582-1.744,0.582
				c-0.748,0-1.329-0.25-1.744-0.665s-0.664-0.996-0.664-1.661v-35.212c0-0.664,0.249-1.245,0.664-1.66
				c0.415-0.416,0.996-0.665,1.744-0.665c0.747,0,1.328,0.249,1.744,0.665c0.415,0.415,0.581,0.996,0.581,1.66v3.156
				c0.83-1.827,2.076-3.156,3.737-4.152c1.661-0.997,3.57-1.495,5.813-1.495C29.98,323.634,32.222,324.216,34.133,325.461z
				 M33.052,346.471c1.495-1.91,2.242-4.484,2.242-7.973c0-3.404-0.747-6.145-2.242-8.055s-3.654-2.907-6.395-2.907
				s-4.899,0.914-6.395,2.824c-1.495,1.909-2.242,4.567-2.242,7.972c0,3.405,0.747,6.146,2.242,8.056s3.654,2.824,6.395,2.824
				C29.315,349.296,31.474,348.299,33.052,346.471z"/>
			<path d="M51.904,351.372c-2.076-1.246-3.653-2.907-4.733-5.149s-1.661-4.816-1.661-7.724c0-2.906,0.581-5.48,1.744-7.806
				c1.163-2.242,2.74-3.986,4.816-5.232c2.076-1.245,4.401-1.91,7.143-1.91c1.495,0,2.989,0.166,4.401,0.582
				c1.495,0.415,2.74,0.996,3.82,1.743c0.664,0.499,1.162,0.914,1.494,1.412c0.333,0.415,0.416,0.914,0.416,1.495
				s-0.166,0.996-0.416,1.328c-0.332,0.333-0.664,0.499-1.162,0.499c-0.249,0-0.581-0.083-0.914-0.249
				c-0.332-0.166-0.581-0.333-0.83-0.499s-0.332-0.249-0.415-0.332c-0.997-0.664-1.993-1.162-2.907-1.578
				c-0.913-0.415-2.076-0.581-3.321-0.581c-2.823,0-5.066,0.997-6.644,2.907c-1.578,1.909-2.408,4.567-2.408,8.055
				c0,3.405,0.83,6.063,2.408,7.973c1.577,1.91,3.82,2.824,6.644,2.824c1.329,0,2.491-0.166,3.405-0.582
				c0.913-0.415,1.909-0.913,2.906-1.577c0.415-0.249,0.83-0.499,1.246-0.665c0.415-0.166,0.747-0.332,0.996-0.332
				c0.415,0,0.83,0.166,1.08,0.498c0.332,0.333,0.415,0.831,0.415,1.329s-0.166,0.997-0.415,1.412
				c-0.25,0.415-0.748,0.83-1.495,1.411c-1.08,0.748-2.408,1.329-3.986,1.744s-3.073,0.665-4.65,0.665
				C56.305,353.199,53.98,352.617,51.904,351.372z"/>
			<path d="M73.663,368.728c-0.332,0.249-0.748,0.415-1.163,0.415c-0.581,0-0.996-0.166-1.495-0.581
				c-0.415-0.415-0.664-0.913-0.664-1.495c0-0.249,0.083-0.498,0.166-0.83l13.786-43.102c0.166-0.498,0.415-0.913,0.747-1.162
				c0.332-0.25,0.748-0.416,1.163-0.416c0.581,0,0.996,0.166,1.495,0.582c0.415,0.415,0.664,0.913,0.664,1.494
				c0,0.083,0,0.332-0.083,0.748L74.41,367.482C74.244,368.064,73.995,368.479,73.663,368.728z"/>
			<path d="M93.012,371.635c-1.578-0.415-3.072-0.996-4.318-1.826c-0.664-0.499-1.163-0.914-1.495-1.329s-0.415-0.914-0.415-1.495
				c0-0.498,0.166-0.913,0.415-1.245c0.332-0.333,0.665-0.499,1.163-0.499s1.162,0.333,2.076,0.914
				c1.162,0.664,2.325,1.245,3.488,1.661c1.162,0.415,2.574,0.581,4.318,0.581c2.076,0,3.736-0.332,4.899-1.08
				c1.163-0.747,1.744-1.827,1.744-3.238c0-0.831-0.249-1.578-0.665-2.076c-0.415-0.498-1.162-0.997-2.242-1.412
				c-1.079-0.415-2.574-0.83-4.65-1.245c-3.404-0.748-5.896-1.744-7.391-2.99c-1.495-1.246-2.242-2.906-2.242-5.065
				c0-1.661,0.498-3.156,1.411-4.401c0.914-1.246,2.242-2.326,3.903-3.073s3.571-1.079,5.647-1.079c1.495,0,2.989,0.166,4.401,0.581
				s2.657,0.996,3.737,1.744c1.328,0.913,1.993,1.91,1.993,2.906c0,0.498-0.166,0.914-0.499,1.246
				c-0.332,0.332-0.664,0.498-1.079,0.498c-0.498,0-1.163-0.332-2.076-0.997c-1.08-0.664-2.159-1.245-3.073-1.66
				c-0.996-0.416-2.159-0.582-3.653-0.582c-1.827,0-3.322,0.416-4.401,1.246c-1.08,0.83-1.661,1.91-1.661,3.238
				c0,0.831,0.166,1.578,0.581,2.076c0.415,0.499,1.08,0.997,2.076,1.412c0.913,0.415,2.325,0.831,4.152,1.163
				c2.657,0.581,4.733,1.245,6.146,1.91c1.495,0.664,2.491,1.577,3.156,2.574c0.581,0.996,0.913,2.325,0.913,3.82
				c0,2.491-0.996,4.401-3.072,5.896c-2.076,1.494-4.817,2.242-8.222,2.242C96.335,372.217,94.591,372.051,93.012,371.635z"/>
			<path d="M121.332,370.389c-2.076-1.246-3.654-2.907-4.734-5.149c-1.079-2.242-1.66-4.816-1.66-7.723
				c0-2.907,0.581-5.481,1.744-7.807c1.162-2.242,2.74-3.986,4.816-5.232c2.076-1.245,4.401-1.91,7.142-1.91
				c1.495,0,2.99,0.167,4.401,0.582c1.495,0.415,2.741,0.996,3.82,1.744c0.665,0.498,1.163,0.913,1.495,1.411
				c0.332,0.415,0.415,0.914,0.415,1.495s-0.166,0.996-0.415,1.329c-0.332,0.332-0.664,0.498-1.163,0.498
				c-0.249,0-0.581-0.083-0.913-0.249s-0.581-0.332-0.83-0.498c-0.25-0.167-0.333-0.25-0.416-0.333
				c-0.996-0.664-1.993-1.162-2.906-1.577c-0.913-0.416-2.076-0.582-3.322-0.582c-2.823,0-5.065,0.997-6.644,2.907
				s-2.408,4.567-2.408,8.056c0,3.404,0.83,6.063,2.408,7.972c1.578,1.91,3.82,2.824,6.644,2.824c1.329,0,2.492-0.166,3.405-0.581
				c0.913-0.416,1.91-0.914,2.906-1.578c0.416-0.249,0.831-0.498,1.246-0.665c0.415-0.166,0.747-0.332,0.997-0.332
				c0.415,0,0.83,0.166,1.079,0.499c0.332,0.332,0.415,0.83,0.415,1.328s-0.166,0.997-0.415,1.412s-0.747,0.83-1.495,1.412
				c-1.079,0.747-2.408,1.328-3.986,1.743c-1.577,0.416-3.072,0.665-4.65,0.665C125.733,372.217,123.325,371.635,121.332,370.389z"
				/>
		</g>
	</g>
	<g display="none">
		<path display="inline" d="M115.684,371.136h-79.31c-3.073,0-5.564-2.491-5.564-5.563v-37.87c0-3.072,2.491-5.563,5.564-5.563
			h79.393c3.073,0,5.564,2.491,5.564,5.563v37.87C121.249,368.645,118.758,371.136,115.684,371.136z M36.375,325.876
			c-0.997,0-1.827,0.831-1.827,1.827v37.87c0,0.996,0.83,1.826,1.827,1.826h79.393c0.997,0,1.827-0.83,1.827-1.826v-37.87
			c0-0.996-0.83-1.827-1.827-1.827H36.375z"/>
		<g display="inline">
			<rect x="59.794" y="352.285" width="31.724" height="3.737"/>
			<g>
				<rect x="94.923" y="352.285" width="3.737" height="3.737"/>
				<rect x="101.898" y="352.285" width="3.737" height="3.737"/>
			</g>
			<g>
				<g>
					<rect x="94.923" y="345.641" width="3.737" height="3.737"/>
					<rect x="101.898" y="345.641" width="3.737" height="3.737"/>
				</g>
				<g>
					<rect x="87.864" y="345.641" width="3.736" height="3.737"/>
					<rect x="94.923" y="345.641" width="3.737" height="3.737"/>
				</g>
				<g>
					<rect x="80.887" y="345.641" width="3.737" height="3.737"/>
					<rect x="87.947" y="345.641" width="3.736" height="3.737"/>
				</g>
				<g>
					<rect x="73.829" y="345.641" width="3.737" height="3.737"/>
					<rect x="80.887" y="345.641" width="3.737" height="3.737"/>
				</g>
				<g>
					<rect x="66.769" y="345.641" width="3.737" height="3.737"/>
					<rect x="73.829" y="345.641" width="3.737" height="3.737"/>
				</g>
				<g>
					<rect x="59.794" y="345.641" width="3.737" height="3.737"/>
					<rect x="66.769" y="345.641" width="3.737" height="3.737"/>
				</g>
				<g>
					<rect x="52.818" y="345.641" width="3.737" height="3.737"/>
					<rect x="59.794" y="345.641" width="3.737" height="3.737"/>
				</g>
				<g>
					<rect x="45.759" y="345.641" width="3.737" height="3.737"/>
					<rect x="52.818" y="345.641" width="3.737" height="3.737"/>
				</g>
			</g>
			<g>
				<g>
					<rect x="94.84" y="338.499" width="3.737" height="3.737"/>
					<rect x="101.898" y="338.499" width="3.737" height="3.737"/>
				</g>
				<g>
					<rect x="87.781" y="338.499" width="3.736" height="3.737"/>
					<rect x="94.84" y="338.499" width="3.737" height="3.737"/>
				</g>
				<g>
					<rect x="80.804" y="338.499" width="3.737" height="3.737"/>
					<rect x="87.864" y="338.499" width="3.736" height="3.737"/>
				</g>
				<g>
					<rect x="73.746" y="338.499" width="3.737" height="3.737"/>
					<rect x="80.804" y="338.499" width="3.737" height="3.737"/>
				</g>
				<g>
					<rect x="66.769" y="338.499" width="3.737" height="3.737"/>
					<rect x="73.746" y="338.499" width="3.737" height="3.737"/>
				</g>
				<g>
					<rect x="59.711" y="338.499" width="3.737" height="3.737"/>
					<rect x="66.769" y="338.499" width="3.737" height="3.737"/>
				</g>
				<g>
					<rect x="52.735" y="338.499" width="3.736" height="3.737"/>
					<rect x="59.794" y="338.499" width="3.737" height="3.737"/>
				</g>
				<g>
					<rect x="45.676" y="338.499" width="3.737" height="3.737"/>
					<rect x="52.735" y="338.499" width="3.736" height="3.737"/>
				</g>
			</g>
			<g>
				<rect x="45.676" y="352.285" width="3.737" height="3.737"/>
				<rect x="52.735" y="352.285" width="3.736" height="3.737"/>
			</g>
		</g>
	</g>
	<rect x="281.446" y="8.304" fill="#FFFFFF" width="135.45" height="135.45"/>
	<path display="none" stroke="#000000" stroke-miterlimit="10" d="M379.192,78.313c0.166-0.166,0.249-0.415,0.249-0.664
		s-0.083-0.499-0.249-0.665L351.04,48.832c-0.166-0.166-0.415-0.249-0.665-0.249c-0.249,0-0.498,0.083-0.664,0.249l-28.152,28.152
		c-0.167,0.166-0.25,0.416-0.25,0.665s0.084,0.498,0.25,0.664l28.152,28.153c0.332,0.332,0.914,0.332,1.246,0L379.192,78.313z
		 M350.043,104.307l-26.575-26.575l0.333-0.332l26.574-26.575l0.333,0.332l26.574,26.575l-0.332,0.332l-26.575,26.575
		L350.043,104.307z"/>
	<path display="none" stroke="#000000" stroke-width="2" stroke-miterlimit="10" d="M326.375,91.268l27.405,15.779
		c0.664,0.415,1.495,0.166,1.91-0.498l19.35-33.552c0.166-0.332,0.249-0.664,0.166-0.996l-3.238-13.204
		c-0.083-0.333-0.332-0.665-0.664-0.831l-19.268-11.128c-0.664-0.415-1.495-0.166-1.91,0.498l-24.249,42.021
		C325.461,90.023,325.711,90.853,326.375,91.268z M353.78,102.729l-23.834-13.786l21.841-37.869l16.775,9.634l2.824,11.543
		L353.78,102.729z"/>
	<g display="none">
		<path display="inline" stroke="#000000" stroke-width="1.475" stroke-miterlimit="10" d="M326.79,98.411
			c-7.475,0-14.533-2.658-20.015-7.558l-0.83-0.747l7.392-8.887l0.913,0.748c4.318,3.571,8.388,5.231,12.789,5.231
			c1.578,0,5.315-0.332,5.315-3.238c0-1.495-0.582-2.658-8.222-4.567c-8.72-2.243-15.945-4.9-15.945-15.115
			c0-8.72,6.976-14.865,17.024-14.865c6.644,0,12.623,1.993,17.606,6.063l0.83,0.664l-6.478,9.385l-0.996-0.664
			c-4.152-2.824-7.724-4.235-11.129-4.235c-2.906,0-4.65,1.079-4.65,2.906s0.747,2.74,8.886,4.816
			c9.136,2.408,15.281,5.813,15.281,14.865C344.562,92.431,337.586,98.411,326.79,98.411z M309.184,89.774
			c4.899,3.985,11.045,6.229,17.522,6.229c9.551,0,15.446-4.9,15.446-12.873c0-6.561-3.653-9.965-13.453-12.54
			c-7.724-1.993-10.63-3.072-10.63-7.142c0-2.408,1.827-5.315,7.059-5.315c3.571,0,7.309,1.329,11.461,3.986l3.82-5.563
			c-4.318-3.156-9.468-4.817-15.198-4.817c-8.803,0-14.699,4.983-14.699,12.457c0,7.89,4.318,10.298,14.118,12.789
			c6.893,1.744,10.049,3.156,10.049,6.894c0,3.487-2.99,5.563-7.724,5.563c-4.65,0-8.886-1.577-13.37-5.065L309.184,89.774z"/>
		<path display="inline" stroke="#000000" stroke-width="1.475" stroke-miterlimit="10" d="M369.974,97.746h-18.852V50.077h18.852
			c14.616,0,25.246,10.049,25.246,23.835S384.591,97.746,369.974,97.746z M353.448,95.338h16.443
			c13.287,0,22.921-9.052,22.921-21.426s-9.634-21.426-22.921-21.426h-16.443V95.338z M369.974,88.777h-8.886v-29.73h8.886
			c8.72,0,14.865,6.146,14.865,14.865C384.84,82.798,378.86,88.777,369.974,88.777z M363.414,86.369h6.478
			c7.474,0,12.457-4.982,12.457-12.457s-4.983-12.457-12.457-12.457h-6.478V86.369z"/>
	</g>
	<g display="none">
		<path display="inline" stroke="#000000" stroke-width="1.475" stroke-miterlimit="10" d="M353.116,97.746h-13.288l-4.235-10.381
			h-17.938l-4.235,10.381h-13.039l20.845-48.997h10.963L353.116,97.746z M341.406,95.255h7.973L330.61,51.157h-7.724l-18.769,44.098
			h7.724l4.235-10.381h21.094L341.406,95.255z M334.596,78.396h-15.945l7.973-19.433L334.596,78.396z M322.305,75.905h8.637
			l-4.318-10.547L322.305,75.905z"/>
		<path display="inline" stroke="#000000" stroke-width="1.475" stroke-miterlimit="10" d="M377.864,97.746
			c-13.869,0-24.333-10.547-24.333-24.498c0-13.952,10.63-24.499,24.665-24.499c9.218,0,14.201,3.654,18.271,7.724l0.83,0.747
			l-7.475,8.554l-0.913-0.83c-3.405-3.073-6.063-4.734-10.796-4.734c-6.81,0-11.876,5.564-11.876,12.956
			c0,7.391,5.066,12.955,11.876,12.955c4.65,0,7.557-1.827,11.045-4.983l0.831-0.83l7.889,8.471l-0.747,0.83
			C391.815,95.421,386.252,97.746,377.864,97.746z M378.196,51.074c-12.706,0-22.34,9.467-22.34,22.091
			c0,12.623,9.385,22.09,21.925,22.09c7.225,0,12.208-1.91,16.858-6.478l-4.734-5.065c-3.487,2.989-6.81,4.816-11.792,4.816
			c-8.139,0-14.284-6.561-14.284-15.363c0-8.804,6.146-15.364,14.284-15.364c4.982,0,8.139,1.661,11.46,4.484l4.401-5.065
			C389.989,53.565,385.587,51.074,378.196,51.074z"/>
	</g>
	<g>
		<path d="M345.309,101.566h-12.706V52.569h20.264c11.543,0,19.018,6.81,19.018,17.439c0,10.713-7.89,17.606-20.015,17.606h-6.561
			V101.566z M335.094,99.075h7.807V85.123h8.969c10.713,0,17.606-5.896,17.606-15.114s-6.395-15.031-16.609-15.031h-17.772V99.075z
			 M352.202,78.479h-9.301V61.787h9.135c5.979,0,9.551,3.073,9.551,8.305C361.504,75.074,357.766,78.479,352.202,78.479z
			 M345.309,75.988h6.893c4.152,0,6.894-2.325,6.894-5.979c0-5.065-4.402-5.813-7.06-5.813h-6.644L345.309,75.988L345.309,75.988z"
			/>
	</g>
	<g display="none">
		<g display="inline">
			<g>
				<g>
					<g>
						<defs>
							<rect id="SVGID_1_" x="307.357" y="45.925" width="83.628" height="60.126"/>
						</defs>
						<clipPath id="SVGID_2_">
							<use xlink:href="#SVGID_1_"  overflow="visible"/>
						</clipPath>
						<path clip-path="url(#SVGID_2_)" d="M316.99,56.472c-5.314,0-9.633,4.318-9.633,9.633v30.313c0,5.314,4.318,9.633,9.633,9.633
							h64.361c5.315,0,9.634-4.318,9.634-9.633V66.105c0-5.314-4.318-9.633-9.634-9.633H316.99z"/>
					</g>
				</g>
			</g>
		</g>
		<rect x="319.98" y="78.064" display="inline" fill="#FFFFFF" width="18.769" height="6.727"/>
		<rect x="358.679" y="77.898" display="inline" fill="#FFFFFF" width="18.769" height="6.727"/>
		<rect x="364.659" y="72.417" display="inline" fill="#FFFFFF" width="6.728" height="17.689"/>
		<g display="inline">
			<g>
				<g>
					<g>
						<defs>
							<rect id="SVGID_3_" x="307.357" y="45.925" width="83.628" height="60.126"/>
						</defs>
						<clipPath id="SVGID_4_">
							<use xlink:href="#SVGID_3_"  overflow="visible"/>
						</clipPath>
						<path clip-path="url(#SVGID_4_)" fill="#070707" d="M362.417,45.925c-1.744,0-2.906,1.412-2.906,3.156v0.332
							c0,1.827-0.166,1.08,1.661,1.08h12.291c1.743,0,3.072,0.996,3.072-0.831v-0.415c0-1.827-1.246-3.239-3.072-3.239
							L362.417,45.925L362.417,45.925z"/>
					</g>
				</g>
			</g>
		</g>
		<rect x="359.51" y="49.662" display="inline" width="17.107" height="4.65"/>
		<line display="inline" fill="none" stroke="#050505" stroke-width="5" x1="359.843" y1="49.662" x2="376.286" y2="49.662"/>
		<g display="inline">
			<g>
				<g>
					<g>
						<defs>
							<rect id="SVGID_5_" x="307.357" y="45.925" width="83.628" height="60.126"/>
						</defs>
						<clipPath id="SVGID_6_">
							<use xlink:href="#SVGID_5_"  overflow="visible"/>
						</clipPath>
						<path clip-path="url(#SVGID_6_)" d="M323.718,45.925c-1.744,0-2.907,1.412-2.907,3.156v0.332c0,1.827-0.166,1.08,1.661,1.08
							h12.291c1.744,0,3.072,0.996,3.072-0.831v-0.415c0-1.827-1.245-3.239-3.072-3.239L323.718,45.925L323.718,45.925z"/>
					</g>
				</g>
			</g>
		</g>
		<rect x="320.893" y="49.662" display="inline" width="17.107" height="4.65"/>
		<line display="inline" fill="none" stroke="#020202" stroke-width="4" x1="321.225" y1="49.662" x2="337.586" y2="49.662"/>
	</g>
</g>
</svg>
