<?xml version="1.0" encoding="UTF-8"?><svg id="Calque_1" xmlns="http://www.w3.org/2000/svg" viewBox="0 0 512 512"><defs><style>.cls-1{fill:#fff;}.cls-2{stroke:#000;stroke-miterlimit:10;stroke-width:5px;}</style></defs><path d="m502,10v163.1h-163.1V10h163.1m6-10h-175.1c-2.2,0-4,1.8-4,4v175.1c0,2.2,1.8,4,4,4h175.1c2.2,0,4-1.8,4-4V4c0-2.2-1.8-4-4-4h0Z"/><rect class="cls-1" x="338.9" y="10" width="163.1" height="163.1"/><g><path class="cls-2" d="m394.56,128.02h-33.34V58.26h32.51c7.95,0,14.36,2.25,18.63,6.41,3.44,3.44,5.1,7.59,5.1,12.69,0,5.93-2.25,10.56-6.76,14,7.24,3.56,10.44,8.9,10.44,16.85,0,12.34-9.97,19.81-26.58,19.81Zm-29.78-3.44h29.78c8.66,0,23.02-2.14,23.02-16.49,0-7.47-3.32-11.75-11.27-14.83l-3.44-1.31,3.32-1.78c5.34-2.97,7.83-7,7.83-12.81,0-4.27-1.31-7.47-4.03-10.2-3.56-3.56-9.02-5.34-16.14-5.34h-29.07v62.76Zm29.78-9.37h-19.1v-18.03h18.63c10.92,0,12.58,5.58,12.58,8.9s-1.66,9.14-12.1,9.14Zm-15.54-3.44h15.54c8.54,0,8.54-4.27,8.54-5.69,0-1.31,0-5.46-9.02-5.46h-15.07v11.15Zm11.63-23.25h-15.19v-17.56h16.14c7.12,0,11.27,3.2,11.27,8.54.12,3.44-1.54,9.02-12.22,9.02Zm-11.63-3.44h11.75c8.78,0,8.78-3.92,8.78-5.46,0-4.15-4.27-5.1-7.83-5.1h-12.69v10.56h0Z"/><path class="cls-2" d="m485.44,128.26h-51.14V58.38h18.15v53.03h33.1l-.12,16.85h0Zm-47.58-3.56h44.14v-9.73h-33.1v-53.03h-11.03v62.76h0Z"/></g></svg>