<?xml version="1.0" encoding="UTF-8"?><svg id="Calque_1" xmlns="http://www.w3.org/2000/svg" viewBox="0 0 512 512"><defs><style>.cls-1{stroke-width:6px;}.cls-1,.cls-2,.cls-3{stroke:#000;stroke-miterlimit:10;}.cls-3{fill:#fff;}</style></defs><path class="cls-2" d="m179.1,328.9H4c-2.2,0-4,1.8-4,4v175.2c0,2.2,1.8,4,4,4h175.2c2.2,0,4-1.8,4-4v-175.2c-.1-2.2-1.9-4-4.1-4Zm-6,173.2H10v-163.2h163.1v163.2Z"/><rect class="cls-3" x="10" y="338.9" width="163.2" height="163.2"/><g><path class="cls-1" d="m41.1,391.9c2.3,1.5,4.1,3.6,5.3,6.3,1.3,2.7,1.9,5.8,1.9,9.4s-.6,6.7-1.9,9.3c-1.3,2.7-3,4.7-5.3,6.2s-4.9,2.2-8,2.2c-2.7,0-5-.6-7-1.8-2-1.2-3.5-2.8-4.5-5v16.5c0,.8-.2,1.5-.7,2s-1.2.7-2.1.7-1.6-.3-2.1-.8-.8-1.2-.8-2v-42.4c0-.8.3-1.5.8-2s1.2-.8,2.1-.8,1.6.3,2.1.8.7,1.2.7,2v3.8c1-2.2,2.5-3.8,4.5-5s4.3-1.8,7-1.8c3,.2,5.7.9,8,2.4Zm-1.3,25.3c1.8-2.3,2.7-5.4,2.7-9.6s-.9-7.4-2.7-9.7c-1.8-2.3-4.4-3.5-7.7-3.5s-5.9,1.1-7.7,3.4c-1.8,2.3-2.7,5.5-2.7,9.6s.9,7.4,2.7,9.7c1.8,2.3,4.4,3.4,7.7,3.4,3.2.1,5.8-1.1,7.7-3.3Z"/><path class="cls-1" d="m62.5,423.1c-2.5-1.5-4.4-3.5-5.7-6.2s-2-5.8-2-9.3.7-6.6,2.1-9.4c1.4-2.7,3.3-4.8,5.8-6.3s5.3-2.3,8.6-2.3c1.8,0,3.6.2,5.3.7,1.8.5,3.3,1.2,4.6,2.1.8.6,1.4,1.1,1.8,1.7.4.5.5,1.1.5,1.8s-.2,1.2-.5,1.6c-.4.4-.8.6-1.4.6-.3,0-.7-.1-1.1-.3-.4-.2-.7-.4-1-.6s-.4-.3-.5-.4c-1.2-.8-2.4-1.4-3.5-1.9s-2.5-.7-4-.7c-3.4,0-6.1,1.2-8,3.5s-2.9,5.5-2.9,9.7,1,7.3,2.9,9.6c1.9,2.3,4.6,3.4,8,3.4,1.6,0,3-.2,4.1-.7s2.3-1.1,3.5-1.9c.5-.3,1-.6,1.5-.8.5-.2.9-.4,1.2-.4.5,0,1,.2,1.3.6.4.4.5,1,.5,1.6s-.2,1.2-.5,1.7-.9,1-1.8,1.7c-1.3.9-2.9,1.6-4.8,2.1s-3.7.8-5.6.8c-3.1.2-5.9-.5-8.4-2Z"/><path class="cls-1" d="m88.7,444c-.4.3-.9.5-1.4.5-.7,0-1.2-.2-1.8-.7-.5-.5-.8-1.1-.8-1.8,0-.3.1-.6.2-1l16.6-51.9c.2-.6.5-1.1.9-1.4s.9-.5,1.4-.5c.7,0,1.2.2,1.8.7.5.5.8,1.1.8,1.8,0,.1,0,.4-.1.9l-16.7,51.9c-.2.7-.5,1.2-.9,1.5Z"/><path class="cls-1" d="m112,447.5c-1.9-.5-3.7-1.2-5.2-2.2-.8-.6-1.4-1.1-1.8-1.6s-.5-1.1-.5-1.8c0-.6.2-1.1.5-1.5.4-.4.8-.6,1.4-.6s1.4.4,2.5,1.1c1.4.8,2.8,1.5,4.2,2,1.4.5,3.1.7,5.2.7,2.5,0,4.5-.4,5.9-1.3s2.1-2.2,2.1-3.9c0-1-.3-1.9-.8-2.5s-1.4-1.2-2.7-1.7c-1.3-.5-3.1-1-5.6-1.5-4.1-.9-7.1-2.1-8.9-3.6s-2.7-3.5-2.7-6.1c0-2,.6-3.8,1.7-5.3s2.7-2.8,4.7-3.7c2-.9,4.3-1.3,6.8-1.3,1.8,0,3.6.2,5.3.7,1.7.5,3.2,1.2,4.5,2.1,1.6,1.1,2.4,2.3,2.4,3.5,0,.6-.2,1.1-.6,1.5-.4.4-.8.6-1.3.6-.6,0-1.4-.4-2.5-1.2-1.3-.8-2.6-1.5-3.7-2-1.2-.5-2.6-.7-4.4-.7-2.2,0-4,.5-5.3,1.5s-2,2.3-2,3.9c0,1,.2,1.9.7,2.5s1.3,1.2,2.5,1.7c1.1.5,2.8,1,5,1.4,3.2.7,5.7,1.5,7.4,2.3,1.8.8,3,1.9,3.8,3.1.7,1.2,1.1,2.8,1.1,4.6,0,3-1.2,5.3-3.7,7.1-2.5,1.8-5.8,2.7-9.9,2.7-2.1.2-4.2,0-6.1-.5Z"/><path class="cls-1" d="m146.1,446c-2.5-1.5-4.4-3.5-5.7-6.2s-2-5.8-2-9.3.7-6.6,2.1-9.4c1.4-2.7,3.3-4.8,5.8-6.3s5.3-2.3,8.6-2.3c1.8,0,3.6.2,5.3.7,1.8.5,3.3,1.2,4.6,2.1.8.6,1.4,1.1,1.8,1.7.4.5.5,1.1.5,1.8s-.2,1.2-.5,1.6c-.4.4-.8.6-1.4.6-.3,0-.7-.1-1.1-.3-.4-.2-.7-.4-1-.6s-.4-.3-.5-.4c-1.2-.8-2.4-1.4-3.5-1.9s-2.5-.7-4-.7c-3.4,0-6.1,1.2-8,3.5s-2.9,5.5-2.9,9.7,1,7.3,2.9,9.6c1.9,2.3,4.6,3.4,8,3.4,1.6,0,3-.2,4.1-.7s2.3-1.1,3.5-1.9c.5-.3,1-.6,1.5-.8.5-.2.9-.4,1.2-.4.5,0,1,.2,1.3.6.4.4.5,1,.5,1.6s-.2,1.2-.5,1.7-.9,1-1.8,1.7c-1.3.9-2.9,1.6-4.8,2.1-1.9.5-3.7.8-5.6.8-3.1.2-6-.5-8.4-2Z"/></g></svg>