<?xml version="1.0" encoding="UTF-8"?><svg id="Calque_1" xmlns="http://www.w3.org/2000/svg" viewBox="0 0 512 512"><defs><style>.cls-1,.cls-2{stroke:#000;stroke-miterlimit:10;}.cls-3{fill:#fff;}.cls-2{fill:#0a0a0a;stroke-width:4px;}</style></defs><path class="cls-1" d="m179.1,328.9H4c-2.2,0-4,1.8-4,4v175.2c0,2.2,1.8,4,4,4h175.2c2.2,0,4-1.8,4-4v-175.2c-.1-2.2-1.9-4-4.1-4Zm-6,173.2H10v-163.2h163.1v163.2Z"/><rect class="cls-3" x="10" y="338.9" width="163.1" height="163.1"/><path class="cls-2" d="m156.09,392.25c0-1.65-.73-3.31-1.84-4.41l-28.66-28.85c-2.39-2.39-6.61-2.39-9,0l-22.6,22.42-1.1-.55c-2.57-2.2-6.43-1.84-8.64.37l-55.31,55.31c-1.1,1.1-1.84,2.76-1.84,4.41s.73,3.31,1.84,4.41l3.67,3.67-.55.92c-2.94,4.04-4.41,8.82-4.41,13.78,0,12.86,10.47,23.34,23.34,23.34,4.96,0,9.74-1.47,13.6-4.41l.92-.73.92.73,2.76,2.76c2.39,2.39,6.61,2.39,8.82,0l55.49-55.49c1.1-1.1,1.84-2.76,1.84-4.41s-.73-3.31-1.84-4.41l-1.84-1.84.92-.92,1.1.73-.92-.92,21.68-21.68c1.1-.92,1.65-2.57,1.65-4.23Zm-95.73,87.28c-2.94,1.84-6.25,2.76-9.74,2.76-10.11,0-18.37-8.27-18.37-18.56,0-3.49.92-6.8,2.76-9.74l.92-1.47,1.29,1.1,24.81,24.81-1.65,1.1Zm69.46-52.92l-.92-.92.92.92-56.59,56.41-41.89-42.08.92-.92,56.59-56.41,41.89,42.08-.92.92Zm-1.65-10.66l-.92-.92-29.95-29.95,23.7-23.7,30.69,30.87-23.52,23.7Z"/><rect class="cls-2" x="117.77" y="380.14" width="4.78" height="4.78" transform="translate(-235.29 197) rotate(-45)"/><rect class="cls-2" x="128.18" y="391.37" width="4.78" height="4.78" transform="translate(-240.19 207.66) rotate(-45)"/></svg>