<?xml version="1.0" encoding="UTF-8"?><svg id="Calque_1" xmlns="http://www.w3.org/2000/svg" viewBox="0 0 512 512"><defs><style>.cls-1{fill:#fff;}.cls-2{stroke:#000;stroke-miterlimit:10;stroke-width:5px;}</style></defs><path d="m502,10v163.1h-163.1V10h163.1m6-10h-175.1c-2.2,0-4,1.8-4,4v175.1c0,2.2,1.8,4,4,4h175.1c2.2,0,4-1.8,4-4V4c0-2.2-1.8-4-4-4h0Z"/><rect class="cls-1" x="338.9" y="10" width="163.1" height="163.1"/><path class="cls-2" d="m410,142.8h-25.93V42.8h41.36c23.56,0,38.81,13.9,38.81,35.59s-16.1,35.93-40.85,35.93h-13.39v28.47Zm-20.85-5.08h15.93v-28.47h18.31c21.86,0,35.93-12.03,35.93-30.85s-13.05-30.68-33.9-30.68h-36.27v90Zm34.92-42.03h-18.98v-34.07h18.64c12.2,0,19.49,6.27,19.49,16.95-.17,10.17-7.8,17.12-19.15,17.12Zm-14.07-5.08h14.07c8.47,0,14.07-4.75,14.07-12.2,0-10.34-8.98-11.86-14.41-11.86h-13.56l-.17,24.07h0Z"/></svg>