<?xml version="1.0" encoding="UTF-8"?><svg id="Calque_1" xmlns="http://www.w3.org/2000/svg" viewBox="0 0 512 512"><defs><style>.cls-1{stroke-width:3px;}.cls-1,.cls-2,.cls-3{stroke:#000;stroke-miterlimit:10;}.cls-3{fill:#fff;}</style></defs><path class="cls-2" d="m179.1,328.9H4c-2.2,0-4,1.8-4,4v175.2c0,2.2,1.8,4,4,4h175.2c2.2,0,4-1.8,4-4v-175.2c-.1-2.2-1.9-4-4.1-4Zm-6,173.2H10v-163.2h163.1v163.2Z"/><rect class="cls-3" x="10" y="338.9" width="163.2" height="163.2"/><g><path class="cls-1" d="m156.28,457.4H26.79c-5.02,0-9.08-4.07-9.08-9.08v-61.83c0-5.02,4.07-9.08,9.08-9.08h129.63c5.02,0,9.08,4.07,9.08,9.08v61.83c-.14,5.02-4.2,9.08-9.22,9.08ZM26.79,383.5c-1.63,0-2.98,1.36-2.98,2.98v61.83c0,1.63,1.36,2.98,2.98,2.98h129.63c1.63,0,2.98-1.36,2.98-2.98v-61.83c0-1.63-1.36-2.98-2.98-2.98H26.79Z"/><g><rect class="cls-1" x="65.02" y="426.62" width="51.8" height="6.1"/><g><rect class="cls-1" x="122.38" y="426.62" width="6.1" height="6.1"/><rect class="cls-1" x="133.77" y="426.62" width="6.1" height="6.1"/></g><g><g><rect class="cls-1" x="122.38" y="415.77" width="6.1" height="6.1"/><rect class="cls-1" x="133.77" y="415.77" width="6.1" height="6.1"/></g><g><rect class="cls-1" x="110.85" y="415.77" width="6.1" height="6.1"/><rect class="cls-1" x="122.38" y="415.77" width="6.1" height="6.1"/></g><g><rect class="cls-1" x="99.46" y="415.77" width="6.1" height="6.1"/><rect class="cls-1" x="110.99" y="415.77" width="6.1" height="6.1"/></g><g><rect class="cls-1" x="87.94" y="415.77" width="6.1" height="6.1"/><rect class="cls-1" x="99.46" y="415.77" width="6.1" height="6.1"/></g><g><rect class="cls-1" x="76.41" y="415.77" width="6.1" height="6.1"/><rect class="cls-1" x="87.94" y="415.77" width="6.1" height="6.1"/></g><g><rect class="cls-1" x="65.02" y="415.77" width="6.1" height="6.1"/><rect class="cls-1" x="76.41" y="415.77" width="6.1" height="6.1"/></g><g><rect class="cls-1" x="53.63" y="415.77" width="6.1" height="6.1"/><rect class="cls-1" x="65.02" y="415.77" width="6.1" height="6.1"/></g><g><rect class="cls-1" x="42.11" y="415.77" width="6.1" height="6.1"/><rect class="cls-1" x="53.63" y="415.77" width="6.1" height="6.1"/></g></g><g><g><rect class="cls-1" x="122.24" y="404.11" width="6.1" height="6.1"/><rect class="cls-1" x="133.77" y="404.11" width="6.1" height="6.1"/></g><g><rect class="cls-1" x="110.72" y="404.11" width="6.1" height="6.1"/><rect class="cls-1" x="122.24" y="404.11" width="6.1" height="6.1"/></g><g><rect class="cls-1" x="99.33" y="404.11" width="6.1" height="6.1"/><rect class="cls-1" x="110.85" y="404.11" width="6.1" height="6.1"/></g><g><rect class="cls-1" x="87.8" y="404.11" width="6.1" height="6.1"/><rect class="cls-1" x="99.33" y="404.11" width="6.1" height="6.1"/></g><g><rect class="cls-1" x="76.41" y="404.11" width="6.1" height="6.1"/><rect class="cls-1" x="87.8" y="404.11" width="6.1" height="6.1"/></g><g><rect class="cls-1" x="64.89" y="404.11" width="6.1" height="6.1"/><rect class="cls-1" x="76.41" y="404.11" width="6.1" height="6.1"/></g><g><rect class="cls-1" x="53.5" y="404.11" width="6.1" height="6.1"/><rect class="cls-1" x="65.02" y="404.11" width="6.1" height="6.1"/></g><g><rect class="cls-1" x="41.97" y="404.11" width="6.1" height="6.1"/><rect class="cls-1" x="53.5" y="404.11" width="6.1" height="6.1"/></g></g><g><rect class="cls-1" x="41.97" y="426.62" width="6.1" height="6.1"/><rect class="cls-1" x="53.5" y="426.62" width="6.1" height="6.1"/></g></g></g></svg>