<?xml version="1.0" encoding="UTF-8"?><svg id="Calque_1" xmlns="http://www.w3.org/2000/svg" viewBox="0 0 512 512"><defs><style>.cls-1{fill:#fff;}</style></defs><path d="m502,10v163.1h-163.1V10h163.1m6-10h-175.1c-2.2,0-4,1.8-4,4v175.1c0,2.2,1.8,4,4,4h175.1c2.2,0,4-1.8,4-4V4c0-2.2-1.8-4-4-4h0Z"/><rect class="cls-1" x="338.9" y="10" width="163.1" height="163.1"/><g><path class="cls-1" d="m420.84,18.43h72.7v146.28h-146.28V18.43h72.4c-.15.44-.44.74-.59,1.18-3.98,9.73-7.96,19.46-11.8,29.34-.74,1.77,0,2.65,1.77,2.65h6.19v80.81c-.29-.29-.44-.29-.59-.44-6.05-6.34-12.09-12.53-17.99-18.87-.44-.44-.59-1.18-.59-1.77v-18.58c0-.88.15-1.33,1.03-1.77,3.69-2.36,5.31-6.93,4.13-11.21-1.33-4.28-5.16-7.23-9.58-7.23s-8.41,2.8-9.73,7.23c-1.33,4.28.29,8.85,4.13,11.21.88.59,1.18,1.18,1.18,2.21v20.5c0,1.92.59,3.39,1.92,4.72,7.67,7.67,15.34,15.34,23,23,.29.29.74.74,1.03,1.18-4.28,4.57-5.16,6.93-4.57,11.65.88,8.11,10.47,13.12,17.55,9.29,4.42-2.36,6.64-6.19,6.64-11.06s-2.51-8.41-6.78-10.76c-.88-.44-1.33-1.03-1.33-2.06v-14.01c0-1.03.29-1.62,1.03-2.36,8.85-8.7,17.55-17.4,26.39-26.1,1.62-1.62,2.51-3.39,2.36-5.6-.15-4.28,0-8.7,0-12.98v-1.47h3.98c1.18,0,1.77-.44,1.77-1.77v-16.07c0-1.03-.29-1.47-1.47-1.47h-17.84c-1.18,0-1.33.44-1.33,1.47v16.22c0,1.33.59,1.77,1.77,1.77h3.98v13.12c0,.88-.29,1.62-.88,2.21-6.19,6.05-12.39,12.09-18.58,18.14-.29.29-.59.59-1.03.88v-59.43h7.23c1.62,0,2.06-.74,1.62-2.36-.15-.29-.15-.44-.29-.74-3.83-9.44-7.67-18.87-11.5-28.31-.29-1.18-.59-1.77-1.03-2.36Z"/><path d="m420.84,18.43c.29.59.74,1.18.88,1.77,3.83,9.44,7.67,18.87,11.5,28.31.15.15.15.44.29.74.44,1.47,0,2.36-1.62,2.36h-7.23v59.43c.44-.29.74-.59,1.03-.88,6.19-6.05,12.39-12.09,18.58-18.14.74-.59.88-1.33.88-2.21v-13.12h-3.98c-1.18,0-1.77-.44-1.77-1.77v-16.22c0-1.03.15-1.47,1.33-1.47h17.84c1.18,0,1.47.44,1.47,1.47v16.07c0,1.33-.59,1.77-1.77,1.77h-3.98v1.47c0,4.28-.15,8.7,0,12.98,0,2.36-.74,3.98-2.36,5.6-8.85,8.7-17.55,17.4-26.39,26.1-.74.74-1.03,1.33-1.03,2.36v14.01c0,1.03.29,1.47,1.33,2.06,4.13,2.36,6.78,5.9,6.78,10.76s-2.21,8.7-6.64,11.06c-7.23,3.83-16.66-1.18-17.55-9.29-.59-4.72.44-7.08,4.57-11.65-.29-.29-.74-.74-1.03-1.18-7.67-7.67-15.34-15.34-23-23-1.33-1.33-1.92-2.8-1.92-4.72.15-6.78,0-13.71,0-20.5,0-1.03-.29-1.62-1.18-2.21-3.69-2.36-5.31-6.93-4.13-11.21,1.33-4.42,5.16-7.23,9.73-7.23s8.26,2.95,9.58,7.23-.29,8.85-4.13,11.21c-.74.44-1.03,1.03-1.03,1.77v18.58c0,.59.29,1.33.59,1.77,6.05,6.34,12.09,12.53,17.99,18.87.15.15.29.29.59.44V51.02h-6.19c-1.92,0-2.51-.88-1.77-2.65,3.98-9.73,7.96-19.46,11.8-29.34.15-.44.44-.74.59-1.18.59.59,1.03.59,1.33.59Z"/></g></svg>