<?xml version="1.0" encoding="UTF-8"?><svg id="Calque_1" xmlns="http://www.w3.org/2000/svg" viewBox="0 0 512 512"><defs><style>.cls-1{fill:#fff;}.cls-2{stroke:#000;stroke-miterlimit:10;stroke-width:5px;}</style></defs><path d="m502,10v163.1h-163.1V10h163.1m6-10h-175.1c-2.2,0-4,1.8-4,4v175.1c0,2.2,1.8,4,4,4h175.1c2.2,0,4-1.8,4-4V4c0-2.2-1.8-4-4-4h0Z"/><rect class="cls-1" x="338.9" y="10" width="163.1" height="163.1"/><path class="cls-2" d="m429.18,142.8h-47.8V42.8h46.61c11.36,0,20.68,3.22,26.61,9.15,4.92,4.92,7.29,10.85,7.29,18.14,0,8.47-3.22,15.08-9.66,20,10.34,5.08,15.08,12.71,15.08,24.07-.17,17.97-14.41,28.64-38.14,28.64Zm-42.71-4.92h42.71c12.37,0,33.05-3.05,33.05-23.56,0-10.68-4.75-16.95-16.1-21.19l-5.08-1.86,4.75-2.54c7.63-4.24,11.19-10.17,11.19-18.31,0-6.1-1.86-10.68-5.76-14.58-5.08-5.08-13.05-7.63-23.05-7.63h-41.69v89.66Zm42.71-13.39h-27.46v-25.93h26.61c15.59,0,17.97,7.97,17.97,12.88.17,4.92-2.2,13.05-17.12,13.05Zm-22.37-4.92h22.37c12.2,0,12.2-6.1,12.2-8.14,0-1.86,0-7.8-12.88-7.8h-21.69v15.93Zm16.78-33.39h-21.86v-25.08h23.05c10.17,0,16.27,4.58,16.27,12.2,0,4.92-2.2,12.88-17.46,12.88Zm-16.78-4.92h16.78c12.54,0,12.54-5.59,12.54-7.8,0-5.93-6.1-7.29-11.19-7.29h-18.14v15.08Z"/></svg>