<?xml version="1.0" encoding="UTF-8"?><svg id="Calque_1" xmlns="http://www.w3.org/2000/svg" viewBox="0 0 512 512"><defs><style>.cls-1{fill:#fff;}.cls-2{stroke:#000;stroke-miterlimit:10;stroke-width:5px;}</style></defs><path d="m502,10v163.1h-163.1V10h163.1m6-10h-175.1c-2.2,0-4,1.8-4,4v175.1c0,2.2,1.8,4,4,4h175.1c2.2,0,4-1.8,4-4V4c0-2.2-1.8-4-4-4h0Z"/><rect class="cls-1" x="338.9" y="10" width="163.1" height="163.1"/><g><path class="cls-2" d="m383.3,129c-12.2,0-23.73-4.34-32.68-12.34l-1.36-1.22,12.07-14.51,1.49,1.22c7.05,5.83,13.69,8.54,20.88,8.54,2.58,0,8.68-.54,8.68-5.29,0-2.44-.95-4.34-13.42-7.46-14.24-3.66-26.03-8-26.03-24.68,0-14.24,11.39-24.27,27.8-24.27,10.85,0,20.61,3.25,28.75,9.9l1.36,1.08-10.58,15.32-1.63-1.08c-6.78-4.61-12.61-6.92-18.17-6.92-4.75,0-7.59,1.76-7.59,4.75s1.22,4.47,14.51,7.86c14.92,3.93,24.95,9.49,24.95,24.27s-11.39,24.81-29.02,24.81Zm-28.75-14.1c8,6.51,18.03,10.17,28.61,10.17,15.59,0,25.22-8,25.22-21.02,0-10.71-5.97-16.27-21.97-20.47-12.61-3.25-17.36-5.02-17.36-11.66,0-3.93,2.98-8.68,11.53-8.68,5.83,0,11.93,2.17,18.71,6.51l6.24-9.08c-7.05-5.15-15.46-7.86-24.81-7.86-14.37,0-24,8.14-24,20.34,0,12.88,7.05,16.81,23.05,20.88,11.25,2.85,16.41,5.15,16.41,11.25,0,5.69-4.88,9.08-12.61,9.08s-14.51-2.58-21.83-8.27l-7.19,8.81Z"/><path class="cls-2" d="m453.81,127.92h-30.78V50.08h30.78c23.86,0,41.22,16.41,41.22,38.92s-17.36,38.92-41.22,38.92Zm-26.98-3.93h26.85c21.69,0,37.42-14.78,37.42-34.98s-15.73-34.98-37.42-34.98h-26.85v69.97Zm26.98-10.71h-14.51v-48.54h14.51c14.24,0,24.27,10.03,24.27,24.27s-9.76,24.27-24.27,24.27Zm-10.71-3.93h10.58c12.2,0,20.34-8.14,20.34-20.34s-8.14-20.34-20.34-20.34h-10.58v40.68Z"/></g></svg>