<?xml version="1.0" encoding="UTF-8"?><svg id="Calque_1" xmlns="http://www.w3.org/2000/svg" viewBox="0 0 512 512"><defs><style>.cls-1,.cls-2,.cls-3{stroke:#000;stroke-miterlimit:10;}.cls-2{stroke-width:3.12px;}.cls-3{fill:#fff;}.cls-4{isolation:isolate;}</style></defs><path class="cls-1" d="m179.1,328.9H4c-2.2,0-4,1.8-4,4v175.2c0,2.2,1.8,4,4,4h175.2c2.2,0,4-1.8,4-4v-175.2c-.1-2.2-1.9-4-4.1-4Zm-6,173.2H10v-163.2h163.1v163.2Z"/><rect class="cls-3" x="10" y="338.9" width="163.2" height="163.2"/><g class="cls-4"><path class="cls-2" d="m61.38,440.79c0,1.46-.62,2.71-1.87,3.75s-2.71,1.46-4.27,1.46c-1.15,0-2.19-.21-3.12-.73s-1.87-1.25-2.5-2.29l-9.17-13.33c-.62-.94-1.35-1.67-2.08-2.08s-1.56-.63-2.6-.63h-4.58v12.6c0,1.98-.52,3.54-1.67,4.69s-2.71,1.77-4.58,1.77-3.54-.52-4.69-1.77c-1.15-1.15-1.77-2.71-1.77-4.69v-37.6c0-1.87.52-3.44,1.56-4.38s2.5-1.56,4.37-1.56h17.6c6.04,0,10.52,1.25,13.54,3.85,3.02,2.6,4.48,6.35,4.48,11.25,0,3.75-1.04,6.88-3.12,9.48s-5,4.38-8.75,5.21c1.56.21,2.92.73,4.06,1.56,1.15.83,2.29,1.98,3.44,3.54l4.37,6.25c.94,1.35,1.35,2.6,1.35,3.65Zm-15.21-24.9c1.25-.94,1.87-2.29,1.87-4.38s-.62-3.54-1.87-4.48-3.33-1.35-6.15-1.35h-8.96v11.56h8.96c2.81,0,4.9-.42,6.15-1.35Z"/><path class="cls-2" d="m69.61,443.92c-1.04-1.04-1.56-2.5-1.56-4.38v-37.6c0-1.87.52-3.44,1.56-4.38s2.5-1.56,4.37-1.56h14.17c5.52,0,10.21,1.04,14.17,3.02,3.96,1.98,6.98,4.79,9.06,8.54s3.12,8.12,3.12,13.23-1.04,9.58-3.12,13.33c-2.08,3.75-5.1,6.56-9.06,8.54-3.96,1.98-8.65,2.92-14.17,2.92h-14.06c-1.98-.1-3.44-.62-4.48-1.67Zm17.71-8.85c4.79,0,8.44-1.15,10.83-3.54s3.65-5.94,3.65-10.83-1.25-8.44-3.65-10.83c-2.4-2.29-6.04-3.54-10.83-3.54h-6.35v28.75h6.35Z"/><path class="cls-2" d="m165.24,440.79c0,1.46-.63,2.71-1.88,3.75s-2.71,1.46-4.27,1.46c-1.15,0-2.19-.21-3.12-.73s-1.88-1.25-2.5-2.29l-9.17-13.33c-.63-.94-1.35-1.67-2.08-2.08s-1.56-.63-2.6-.63h-4.58v12.6c0,1.98-.52,3.54-1.67,4.69s-2.71,1.77-4.58,1.77-3.54-.52-4.69-1.77c-1.15-1.15-1.77-2.71-1.77-4.69v-37.6c0-1.87.52-3.44,1.56-4.38s2.5-1.56,4.37-1.56h17.6c6.04,0,10.52,1.25,13.54,3.85,3.02,2.6,4.48,6.35,4.48,11.25,0,3.75-1.04,6.88-3.12,9.48s-5,4.38-8.75,5.21c1.56.21,2.92.73,4.06,1.56,1.15.83,2.29,1.98,3.44,3.54l4.37,6.25c.94,1.35,1.35,2.6,1.35,3.65Zm-15.21-24.9c1.25-.94,1.88-2.29,1.88-4.38s-.63-3.54-1.88-4.48-3.33-1.35-6.15-1.35h-8.96v11.56h8.96c2.92,0,4.9-.42,6.15-1.35Z"/></g></svg>