<?xml version="1.0" encoding="UTF-8"?><svg id="Calque_1" xmlns="http://www.w3.org/2000/svg" viewBox="0 0 512 512"><defs><style>.cls-1{stroke-width:3px;}.cls-1,.cls-2,.cls-3{stroke:#000;stroke-miterlimit:10;}.cls-3{stroke-width:4px;}.cls-4{isolation:isolate;}</style></defs><path class="cls-2" d="m179.1,328.9H4c-2.2,0-4,1.8-4,4v175.2c0,2.2,1.8,4,4,4h175.2c2.2,0,4-1.8,4-4v-175.2c-.1-2.2-1.9-4-4.1-4h0Zm-6,173.2H10v-163.2h163.1v163.2Z"/><path class="cls-3" d="m113.76,377.62c-.9.9-2.4.8-3.2-.2-10.4-11.2-27.9-11.7-39.1-1.4-.9.9-2.4.8-3.2-.2-.9-.9-.8-2.4.2-3.2,12.9-12.1,33.4-11.3,45.5,1.6.8,1,.8,2.4-.2,3.4h0Z"/><path class="cls-3" d="m126.66,365.42c-.9.9-2.4.8-3.2-.2-17-18.3-45.8-19.4-63.9-2.2-.9.9-2.4.8-3.2-.2-.9-.9-.8-2.4.2-3.2,20-18.7,51.7-17.6,70.4,2.4.7,1.2.7,2.7-.3,3.4h0Z"/><path class="cls-3" d="m111.89,465.45c-.9-.9-2.4-.8-3.2.2-10.4,11.2-27.9,11.7-39.1,1.4-.9-.9-2.4-.8-3.2.2-.9.9-.8,2.4.2,3.2,12.9,12.1,33.4,11.3,45.5-1.6.8-1,.8-2.4-.2-3.4h0Z"/><path class="cls-3" d="m124.79,477.65c-.9-.9-2.4-.8-3.2.2-17,18.3-45.8,19.4-63.9,2.2-.9-.9-2.4-.8-3.2.2-.9.9-.8,2.4.2,3.2,20,18.7,51.7,17.6,70.4-2.4.7-1.2.7-2.7-.3-3.4h0Z"/><g class="cls-4"><g class="cls-4"><path class="cls-1" d="m55.19,447.4c-3.26-.89-5.93-2.15-7.99-3.78-.72-.53-1.24-1.09-1.55-1.69-.31-.6-.47-1.36-.47-2.27,0-1.2.37-2.26,1.12-3.17.74-.91,1.6-1.37,2.56-1.37.53,0,1.04.08,1.55.25.5.17,1.12.47,1.84.9,2.06,1.3,4.15,2.24,6.26,2.84,2.11.6,4.44.9,6.98.9,3.17,0,5.59-.53,7.27-1.58,1.68-1.05,2.52-2.57,2.52-4.54,0-1.49-.78-2.69-2.34-3.6-1.56-.91-4.33-1.78-8.32-2.59-4.46-.91-8.03-2.02-10.69-3.31-2.66-1.3-4.61-2.9-5.83-4.82-1.22-1.92-1.84-4.25-1.84-6.98,0-3.02.88-5.75,2.63-8.17,1.75-2.42,4.18-4.32,7.27-5.69,3.1-1.37,6.59-2.05,10.48-2.05,6.82,0,12.43,1.7,16.85,5.11.72.58,1.24,1.16,1.55,1.76.31.6.47,1.33.47,2.2,0,1.2-.37,2.26-1.12,3.17-.74.91-1.6,1.37-2.56,1.37-.53,0-1.02-.07-1.48-.22-.46-.14-1.09-.46-1.91-.94-1.97-1.25-3.78-2.18-5.44-2.81-1.66-.62-3.76-.94-6.3-.94-2.93,0-5.23.57-6.91,1.69-1.68,1.13-2.52,2.68-2.52,4.64,0,1.15.32,2.1.97,2.84.65.74,1.73,1.4,3.24,1.98,1.51.58,3.66,1.18,6.44,1.8,6.53,1.44,11.22,3.29,14.08,5.54,2.86,2.26,4.28,5.35,4.28,9.29,0,3.07-.85,5.79-2.56,8.14-1.7,2.35-4.1,4.18-7.2,5.47-3.1,1.3-6.68,1.94-10.76,1.94-3.79,0-7.32-.44-10.58-1.33Z"/></g><g class="cls-4"><path class="cls-1" d="m107.5,446.93c-1.03-1.01-1.55-2.35-1.55-4.03v-36.43h-11.66c-3.55,0-5.33-1.54-5.33-4.61s1.77-4.54,5.33-4.54h34.56c3.55,0,5.33,1.51,5.33,4.54s-1.78,4.61-5.33,4.61h-11.66v36.43c0,1.68-.5,3.02-1.51,4.03-1.01,1.01-2.38,1.51-4.1,1.51s-3.04-.5-4.07-1.51Z"/></g></g></svg>