<?xml version="1.0" encoding="utf-8"?>
<!-- Generator: Adobe Illustrator 27.1.1, SVG Export Plug-In . SVG Version: 6.00 Build 0)  -->
<svg version="1.1" id="Calque_1" xmlns="http://www.w3.org/2000/svg" xmlns:xlink="http://www.w3.org/1999/xlink" x="0px" y="0px"
	 viewBox="0 0 512 512" style="enable-background:new 0 0 512 512;" xml:space="preserve">
<style type="text/css">
	.st0{display:none;}
	.st1{display:inline;}
	.st2{stroke:#000000;stroke-width:3;stroke-miterlimit:10;}
	.st3{display:inline;stroke:#000000;stroke-width:1.475;stroke-miterlimit:10;}
	.st4{display:none;enable-background:new    ;}
	.st5{font-family:'Nunito-Regular';}
	.st6{font-size:67.4063px;}
	.st7{display:inline;fill:none;stroke:#000000;stroke-width:6;stroke-miterlimit:10;}
	.st8{display:inline;fill:none;stroke:#000000;stroke-width:4.4117;stroke-miterlimit:10;}
	.st9{display:none;stroke:#000000;stroke-miterlimit:10;}
	.st10{stroke:#000000;stroke-width:2;stroke-miterlimit:10;}
	.st11{display:inline;stroke:#000000;stroke-width:2;stroke-miterlimit:10;}
	.st12{display:none;fill:none;stroke:#000000;stroke-width:13;stroke-miterlimit:10;}
	.st13{display:none;fill:none;stroke:#000000;stroke-width:8;stroke-miterlimit:10;}
	.st14{fill:none;stroke:#000000;stroke-width:15.7955;stroke-miterlimit:10;}
</style>
<g class="st0">
	<path class="st1" d="M502,10v163.1H338.9V10H502 M508,0H332.9c-2.2,0-4,1.8-4,4v175.1c0,2.2,1.8,4,4,4H508c2.2,0,4-1.8,4-4V4
		C512,1.8,510.2,0,508,0L508,0z"/>
</g>
<g class="st0">
	<path class="st1" d="M173.1,338.9v163.2H10V338.9H173.1 M179.1,328.9H4c-2.2,0-4,1.8-4,4v175.2c0,2.2,1.8,4,4,4h175.2
		c2.2,0,4-1.8,4-4V332.9C183.1,330.7,181.3,328.9,179.1,328.9L179.1,328.9z"/>
</g>
<g>
	<g>
		<path class="st2" d="M287.4,139c-1,0.9-2.7,0.9-3.7-0.1c-12-12.8-32.2-13.5-45-1.5c-1,0.9-2.7,0.9-3.7-0.1c-0.9-1-0.9-2.7,0.1-3.7
			c14.9-14,38.5-13.2,52.3,1.9C288.5,136.4,288.4,138.1,287.4,139z"/>
		<path class="st2" d="M302.3,125.2c-1,0.9-2.7,0.9-3.7-0.1c-19.6-21.1-52.7-22.1-73.8-2.6c-1,0.9-2.7,0.9-3.7-0.1
			c-0.9-1-0.9-2.7,0.1-3.7c23.2-21.6,59.5-20.3,81.1,2.8C303.5,122.5,303.3,124.2,302.3,125.2z"/>
		<path class="st2" d="M316.5,111.9c-1,0.9-2.7,0.9-3.7-0.1c-26.9-28.9-72.3-30.4-101.2-3.5c-1,0.9-2.7,0.9-3.7-0.1
			c-0.9-1-0.9-2.7,0.1-3.7c31-28.9,79.7-27.2,108.5,3.8C317.6,109.3,317.6,111,316.5,111.9z"/>
	</g>
	<g>
		<path class="st2" d="M283.6,359.7c-1-0.9-2.7-0.9-3.7,0.1c-12,12.8-32.2,13.5-45,1.5c-1-0.9-2.7-0.9-3.7,0.1
			c-0.9,1-0.9,2.7,0.1,3.7c14.9,14,38.5,13.2,52.3-1.9C284.7,362.3,284.7,360.6,283.6,359.7z"/>
		<path class="st2" d="M298.4,373.5c-1-0.9-2.7-0.9-3.7,0.1c-19.6,21.1-52.7,22.1-73.8,2.6c-1-0.9-2.7-0.9-3.7,0.1
			c-0.9,1-0.9,2.7,0.1,3.7c23.2,21.6,59.5,20.3,81.1-2.8C299.6,376.2,299.5,374.5,298.4,373.5z"/>
		<path class="st2" d="M312.7,386.8c-1-0.9-2.7-0.9-3.7,0.1c-26.9,28.9-72.3,30.4-101.2,3.5c-1-0.9-2.7-0.9-3.7,0.1
			c-0.9,1-0.9,2.7,0.1,3.7c31,28.9,79.7,27.2,108.5-3.8C313.8,389.4,313.7,387.7,312.7,386.8z"/>
	</g>
</g>
<g>
	<path class="st2" d="M265.5,323.6c-23.1,0-45-8.3-61.9-23.3l-2.7-2.3l22.8-27.4l2.8,2.3c13.4,11.1,25.9,16.2,39.5,16.2
		c5,0,16.5-0.9,16.5-9.9c0-4.7-1.7-8.2-25.4-14.2c-26.9-6.9-49.2-15.1-49.2-46.8c0-27,21.7-45.9,52.8-45.9
		c20.6,0,38.9,6.3,54.3,18.6l2.7,2.1l-20,29.1l-3-2.1c-12.7-8.9-24-13.2-34.3-13.2c-9,0-14.3,3.4-14.3,8.9c0,5.8,2.2,8.4,27.4,14.8
		c28.3,7.3,47.2,18.1,47.2,46C320.6,305.1,298.9,323.6,265.5,323.6z M211.2,297.1c15.1,12.4,34.3,19.1,54.3,19.1
		c29.5,0,47.7-15.3,47.7-39.7c0-20.4-11.3-30.9-41.6-38.8c-23.9-6.2-33-9.7-33-22c0-7.6,5.7-16.3,21.7-16.3
		c11.1,0,22.6,4.1,35.4,12.4l11.9-17.4c-13.5-9.9-29.3-14.9-47-14.9c-27.2,0-45.3,15.5-45.3,38.6c0,24.4,13.5,31.9,43.6,39.6
		c21.4,5.5,31,9.9,31,21.4c0,10.7-9.2,17.4-23.9,17.4c-14.3,0-27.6-5-41.3-15.5L211.2,297.1z"/>
</g>
<g class="st0">
	<path class="st3" d="M393.5,118.5c-9,0-17.5-3.2-24.1-9.1l-1-0.9l8.9-10.7l1.1,0.9c5.2,4.3,10.1,6.3,15.4,6.3
		c1.9,0,6.4-0.4,6.4-3.9c0-1.8-0.7-3.2-9.9-5.5c-10.5-2.7-19.2-5.9-19.2-18.2c0-10.5,8.4-17.9,20.5-17.9c8,0,15.2,2.4,21.2,7.3
		l1,0.8L406,78.9l-1.2-0.8c-5-3.4-9.3-5.1-13.4-5.1c-3.5,0-5.6,1.3-5.6,3.5s0.9,3.3,10.7,5.8c11,2.9,18.4,7,18.4,17.9
		C414.9,111.3,406.5,118.5,393.5,118.5z M372.3,108.1c5.9,4.8,13.3,7.5,21.1,7.5c11.5,0,18.6-5.9,18.6-15.5c0-7.9-4.4-12-16.2-15.1
		c-9.3-2.4-12.8-3.7-12.8-8.6c0-2.9,2.2-6.4,8.5-6.4c4.3,0,8.8,1.6,13.8,4.8l4.6-6.7c-5.2-3.8-11.4-5.8-18.3-5.8
		c-10.6,0-17.7,6-17.7,15c0,9.5,5.2,12.4,17,15.4c8.3,2.1,12.1,3.8,12.1,8.3c0,4.2-3.6,6.7-9.3,6.7c-5.6,0-10.7-1.9-16.1-6.1
		L372.3,108.1z"/>
	<path class="st3" d="M445.5,117.7h-22.7V60.3h22.7c17.6,0,30.4,12.1,30.4,28.7S463.1,117.7,445.5,117.7z M425.6,114.8h19.8
		c16,0,27.6-10.9,27.6-25.8s-11.6-25.8-27.6-25.8h-19.8V114.8z M445.5,106.9h-10.7V71.1h10.7c10.5,0,17.9,7.4,17.9,17.9
		C463.4,99.7,456.2,106.9,445.5,106.9z M437.6,104h7.8c9,0,15-6,15-15s-6-15-15-15h-7.8V104z"/>
</g>
<g class="st0">
	<g class="st1">
		<path d="M41.1,391.9c2.3,1.5,4.1,3.6,5.3,6.3c1.3,2.7,1.9,5.8,1.9,9.4s-0.6,6.7-1.9,9.3c-1.3,2.7-3,4.7-5.3,6.2s-4.9,2.2-8,2.2
			c-2.7,0-5-0.6-7-1.8c-2-1.2-3.5-2.8-4.5-5V435c0,0.8-0.2,1.5-0.7,2s-1.2,0.7-2.1,0.7s-1.6-0.3-2.1-0.8s-0.8-1.2-0.8-2v-42.4
			c0-0.8,0.3-1.5,0.8-2s1.2-0.8,2.1-0.8s1.6,0.3,2.1,0.8s0.7,1.2,0.7,2v3.8c1-2.2,2.5-3.8,4.5-5s4.3-1.8,7-1.8
			C36.1,389.7,38.8,390.4,41.1,391.9z M39.8,417.2c1.8-2.3,2.7-5.4,2.7-9.6c0-4.1-0.9-7.4-2.7-9.7c-1.8-2.3-4.4-3.5-7.7-3.5
			s-5.9,1.1-7.7,3.4c-1.8,2.3-2.7,5.5-2.7,9.6s0.9,7.4,2.7,9.7c1.8,2.3,4.4,3.4,7.7,3.4C35.3,420.6,37.9,419.4,39.8,417.2z"/>
		<path d="M62.5,423.1c-2.5-1.5-4.4-3.5-5.7-6.2s-2-5.8-2-9.3s0.7-6.6,2.1-9.4c1.4-2.7,3.3-4.8,5.8-6.3s5.3-2.3,8.6-2.3
			c1.8,0,3.6,0.2,5.3,0.7c1.8,0.5,3.3,1.2,4.6,2.1c0.8,0.6,1.4,1.1,1.8,1.7c0.4,0.5,0.5,1.1,0.5,1.8c0,0.7-0.2,1.2-0.5,1.6
			c-0.4,0.4-0.8,0.6-1.4,0.6c-0.3,0-0.7-0.1-1.1-0.3c-0.4-0.2-0.7-0.4-1-0.6s-0.4-0.3-0.5-0.4c-1.2-0.8-2.4-1.4-3.5-1.9
			s-2.5-0.7-4-0.7c-3.4,0-6.1,1.2-8,3.5s-2.9,5.5-2.9,9.7c0,4.1,1,7.3,2.9,9.6c1.9,2.3,4.6,3.4,8,3.4c1.6,0,3-0.2,4.1-0.7
			s2.3-1.1,3.5-1.9c0.5-0.3,1-0.6,1.5-0.8c0.5-0.2,0.9-0.4,1.2-0.4c0.5,0,1,0.2,1.3,0.6c0.4,0.4,0.5,1,0.5,1.6s-0.2,1.2-0.5,1.7
			s-0.9,1-1.8,1.7c-1.3,0.9-2.9,1.6-4.8,2.1s-3.7,0.8-5.6,0.8C67.8,425.3,65,424.6,62.5,423.1z"/>
		<path d="M88.7,444c-0.4,0.3-0.9,0.5-1.4,0.5c-0.7,0-1.2-0.2-1.8-0.7c-0.5-0.5-0.8-1.1-0.8-1.8c0-0.3,0.1-0.6,0.2-1l16.6-51.9
			c0.2-0.6,0.5-1.1,0.9-1.4s0.9-0.5,1.4-0.5c0.7,0,1.2,0.2,1.8,0.7c0.5,0.5,0.8,1.1,0.8,1.8c0,0.1,0,0.4-0.1,0.9l-16.7,51.9
			C89.4,443.2,89.1,443.7,88.7,444z"/>
		<path d="M112,447.5c-1.9-0.5-3.7-1.2-5.2-2.2c-0.8-0.6-1.4-1.1-1.8-1.6s-0.5-1.1-0.5-1.8c0-0.6,0.2-1.1,0.5-1.5
			c0.4-0.4,0.8-0.6,1.4-0.6s1.4,0.4,2.5,1.1c1.4,0.8,2.8,1.5,4.2,2c1.4,0.5,3.1,0.7,5.2,0.7c2.5,0,4.5-0.4,5.9-1.3s2.1-2.2,2.1-3.9
			c0-1-0.3-1.9-0.8-2.5s-1.4-1.2-2.7-1.7c-1.3-0.5-3.1-1-5.6-1.5c-4.1-0.9-7.1-2.1-8.9-3.6s-2.7-3.5-2.7-6.1c0-2,0.6-3.8,1.7-5.3
			s2.7-2.8,4.7-3.7c2-0.9,4.3-1.3,6.8-1.3c1.8,0,3.6,0.2,5.3,0.7c1.7,0.5,3.2,1.2,4.5,2.1c1.6,1.1,2.4,2.3,2.4,3.5
			c0,0.6-0.2,1.1-0.6,1.5c-0.4,0.4-0.8,0.6-1.3,0.6c-0.6,0-1.4-0.4-2.5-1.2c-1.3-0.8-2.6-1.5-3.7-2c-1.2-0.5-2.6-0.7-4.4-0.7
			c-2.2,0-4,0.5-5.3,1.5s-2,2.3-2,3.9c0,1,0.2,1.9,0.7,2.5s1.3,1.2,2.5,1.7c1.1,0.5,2.8,1,5,1.4c3.2,0.7,5.7,1.5,7.4,2.3
			c1.8,0.8,3,1.9,3.8,3.1c0.7,1.2,1.1,2.8,1.1,4.6c0,3-1.2,5.3-3.7,7.1c-2.5,1.8-5.8,2.7-9.9,2.7C116,448.2,113.9,448,112,447.5z"/>
		<path d="M146.1,446c-2.5-1.5-4.4-3.5-5.7-6.2s-2-5.8-2-9.3s0.7-6.6,2.1-9.4c1.4-2.7,3.3-4.8,5.8-6.3s5.3-2.3,8.6-2.3
			c1.8,0,3.6,0.2,5.3,0.7c1.8,0.5,3.3,1.2,4.6,2.1c0.8,0.6,1.4,1.1,1.8,1.7c0.4,0.5,0.5,1.1,0.5,1.8c0,0.7-0.2,1.2-0.5,1.6
			c-0.4,0.4-0.8,0.6-1.4,0.6c-0.3,0-0.7-0.1-1.1-0.3c-0.4-0.2-0.7-0.4-1-0.6s-0.4-0.3-0.5-0.4c-1.2-0.8-2.4-1.4-3.5-1.9
			s-2.5-0.7-4-0.7c-3.4,0-6.1,1.2-8,3.5s-2.9,5.5-2.9,9.7c0,4.1,1,7.3,2.9,9.6c1.9,2.3,4.6,3.4,8,3.4c1.6,0,3-0.2,4.1-0.7
			s2.3-1.1,3.5-1.9c0.5-0.3,1-0.6,1.5-0.8c0.5-0.2,0.9-0.4,1.2-0.4c0.5,0,1,0.2,1.3,0.6c0.4,0.4,0.5,1,0.5,1.6s-0.2,1.2-0.5,1.7
			s-0.9,1-1.8,1.7c-1.3,0.9-2.9,1.6-4.8,2.1c-1.9,0.5-3.7,0.8-5.6,0.8C151.4,448.2,148.5,447.5,146.1,446z"/>
	</g>
</g>
<g class="st0">
	<path class="st3" d="M425.2,117.7h-16l-5.1-12.5h-21.6l-5.1,12.5h-15.7l25.1-59H400L425.2,117.7z M411.1,114.7h9.6l-22.6-53.1h-9.3
		l-22.6,53.1h9.3l5.1-12.5H406L411.1,114.7z M402.9,94.4h-19.2l9.6-23.4L402.9,94.4z M388.1,91.4h10.4l-5.2-12.7L388.1,91.4z"/>
	<path class="st3" d="M455,117.7c-16.7,0-29.3-12.7-29.3-29.5s12.8-29.5,29.7-29.5c11.1,0,17.1,4.4,22,9.3l1,0.9l-9,10.3l-1.1-1
		c-4.1-3.7-7.3-5.7-13-5.7c-8.2,0-14.3,6.7-14.3,15.6s6.1,15.6,14.3,15.6c5.6,0,9.1-2.2,13.3-6l1-1l9.5,10.2l-0.9,1
		C471.8,114.9,465.1,117.7,455,117.7z M455.4,61.5c-15.3,0-26.9,11.4-26.9,26.6s11.3,26.6,26.4,26.6c8.7,0,14.7-2.3,20.3-7.8
		l-5.7-6.1c-4.2,3.6-8.2,5.8-14.2,5.8c-9.8,0-17.2-7.9-17.2-18.5s7.4-18.5,17.2-18.5c6,0,9.8,2,13.8,5.4l5.3-6.1
		C469.6,64.5,464.3,61.5,455.4,61.5z"/>
</g>
<text transform="matrix(1 0 0 1 22.0735 439.489)" class="st4 st5 st6">RDR</text>
<g class="st0">
	<path class="st1" d="M139.3,446.9H43.8c-3.7,0-6.7-3-6.7-6.7v-45.6c0-3.7,3-6.7,6.7-6.7h95.6c3.7,0,6.7,3,6.7,6.7v45.6
		C146,443.9,143,446.9,139.3,446.9z M43.8,392.4c-1.2,0-2.2,1-2.2,2.2v45.6c0,1.2,1,2.2,2.2,2.2h95.6c1.2,0,2.2-1,2.2-2.2v-45.6
		c0-1.2-1-2.2-2.2-2.2H43.8z"/>
	<g class="st1">
		<rect x="72" y="424.2" width="38.2" height="4.5"/>
		<g>
			<rect x="114.3" y="424.2" width="4.5" height="4.5"/>
			<rect x="122.7" y="424.2" width="4.5" height="4.5"/>
		</g>
		<g>
			<g>
				<rect x="114.3" y="416.2" width="4.5" height="4.5"/>
				<rect x="122.7" y="416.2" width="4.5" height="4.5"/>
			</g>
			<g>
				<rect x="105.8" y="416.2" width="4.5" height="4.5"/>
				<rect x="114.3" y="416.2" width="4.5" height="4.5"/>
			</g>
			<g>
				<rect x="97.4" y="416.2" width="4.5" height="4.5"/>
				<rect x="105.9" y="416.2" width="4.5" height="4.5"/>
			</g>
			<g>
				<rect x="88.9" y="416.2" width="4.5" height="4.5"/>
				<rect x="97.4" y="416.2" width="4.5" height="4.5"/>
			</g>
			<g>
				<rect x="80.4" y="416.2" width="4.5" height="4.5"/>
				<rect x="88.9" y="416.2" width="4.5" height="4.5"/>
			</g>
			<g>
				<rect x="72" y="416.2" width="4.5" height="4.5"/>
				<rect x="80.4" y="416.2" width="4.5" height="4.5"/>
			</g>
			<g>
				<rect x="63.6" y="416.2" width="4.5" height="4.5"/>
				<rect x="72" y="416.2" width="4.5" height="4.5"/>
			</g>
			<g>
				<rect x="55.1" y="416.2" width="4.5" height="4.5"/>
				<rect x="63.6" y="416.2" width="4.5" height="4.5"/>
			</g>
		</g>
		<g>
			<g>
				<rect x="114.2" y="407.6" width="4.5" height="4.5"/>
				<rect x="122.7" y="407.6" width="4.5" height="4.5"/>
			</g>
			<g>
				<rect x="105.7" y="407.6" width="4.5" height="4.5"/>
				<rect x="114.2" y="407.6" width="4.5" height="4.5"/>
			</g>
			<g>
				<rect x="97.3" y="407.6" width="4.5" height="4.5"/>
				<rect x="105.8" y="407.6" width="4.5" height="4.5"/>
			</g>
			<g>
				<rect x="88.8" y="407.6" width="4.5" height="4.5"/>
				<rect x="97.3" y="407.6" width="4.5" height="4.5"/>
			</g>
			<g>
				<rect x="80.4" y="407.6" width="4.5" height="4.5"/>
				<rect x="88.8" y="407.6" width="4.5" height="4.5"/>
			</g>
			<g>
				<rect x="71.9" y="407.6" width="4.5" height="4.5"/>
				<rect x="80.4" y="407.6" width="4.5" height="4.5"/>
			</g>
			<g>
				<rect x="63.5" y="407.6" width="4.5" height="4.5"/>
				<rect x="72" y="407.6" width="4.5" height="4.5"/>
			</g>
			<g>
				<rect x="55" y="407.6" width="4.5" height="4.5"/>
				<rect x="63.5" y="407.6" width="4.5" height="4.5"/>
			</g>
		</g>
		<g>
			<rect x="55" y="424.2" width="4.5" height="4.5"/>
			<rect x="63.5" y="424.2" width="4.5" height="4.5"/>
		</g>
	</g>
</g>
<g class="st0">
	<line class="st7" x1="74.7" y1="392.6" x2="42.7" y2="424.6"/>
	<line class="st7" x1="39.9" y1="425.4" x2="152" y2="425.4"/>
</g>
<g class="st0">
	<line class="st7" x1="117.2" y1="471.2" x2="149.2" y2="439.2"/>
	<line class="st7" x1="152" y1="438.4" x2="39.9" y2="438.4"/>
</g>
<g class="st0">
	<path class="st1" d="M71.6,253.8c0-100.8,82-182.9,182.9-182.9c26.5,0,51.6,5.7,74.3,15.8c0.2-5.4,0.6-10.7,0.9-16.1
		c-23.2-9.6-48.6-14.9-75.2-14.9c-109.2,0-198,88.8-198,198c0,28.5,6,55.5,16.9,80c5.7,0,11.1,0,16.7,0
		C78.3,309.6,71.6,282.4,71.6,253.8z"/>
	<path class="st1" d="M439.4,182.8c-5.5,0.6-11.3-1-16.8-1.1c9.5,22.1,14.8,46.5,14.8,72c0,100.8-82,182.9-182.9,182.9
		c-27.6,0-53.8-6.2-77.3-17.1c0.6,5.5,1.8,11.3,0.1,16.6c23.7,10.1,49.8,15.7,77.2,15.7c109.2,0,198-88.8,198-198
		C452.5,228.8,447.8,204.9,439.4,182.8z"/>
</g>
<g class="st0">
	<path class="st1" d="M257.2,317.1h-33.7v-130h53.7c30.7,0,50.5,18.2,50.5,46.3c0,28.3-20.9,46.7-53.2,46.7h-17.4v37H257.2z
		 M230,310.6h20.6v-37h23.9c28.3,0,46.7-15.8,46.7-40.1c0-24.5-16.9-39.8-44-39.8H230V310.6z M275.4,255.9h-24.8v-44.3h24.3
		c15.9,0,25.3,8.2,25.3,22C300.2,246.9,290.3,255.9,275.4,255.9z M257.2,249.3h18.3c11.1,0,18.3-6.2,18.3-15.8
		c0-13.4-11.8-15.4-18.8-15.4h-17.7L257.2,249.3L257.2,249.3z"/>
</g>
<path class="st0" d="M427.2,122.3H399v-59h27.5c6.7,0,12.2,1.9,15.7,5.4c2.9,2.9,4.3,6.4,4.3,10.7c0,5-1.9,8.9-5.7,11.8
	c6.1,3,8.9,7.5,8.9,14.2C449.6,116,441.2,122.3,427.2,122.3z M402,119.4h25.2c7.3,0,19.5-1.8,19.5-13.9c0-6.3-2.8-10-9.5-12.5
	l-3-1.1l2.8-1.5c4.5-2.5,6.6-6,6.6-10.8c0-3.6-1.1-6.3-3.4-8.6c-3-3-7.7-4.5-13.6-4.5H402V119.4z M427.2,111.5H411V96.2h15.7
	c9.2,0,10.6,4.7,10.6,7.6C437.4,106.7,436,111.5,427.2,111.5z M414,108.6h13.2c7.2,0,7.2-3.6,7.2-4.8c0-1.1,0-4.6-7.6-4.6H414V108.6
	z M423.9,88.9H411V74.1h13.6c6,0,9.6,2.7,9.6,7.2C434.2,84.2,432.9,88.9,423.9,88.9z M414,86h9.9c7.4,0,7.4-3.3,7.4-4.6
	c0-3.5-3.6-4.3-6.6-4.3H414V86z"/>
<g class="st0">
	<path class="st1" d="M404.9,122.5h-28.1V63.7h27.4c6.7,0,12.1,1.9,15.7,5.4c2.9,2.9,4.3,6.4,4.3,10.7c0,5-1.9,8.9-5.7,11.8
		c6.1,3,8.8,7.5,8.8,14.2C427.3,116.2,418.9,122.5,404.9,122.5z M379.8,119.6h25.1c7.3,0,19.4-1.8,19.4-13.9c0-6.3-2.8-9.9-9.5-12.5
		l-2.9-1.1l2.8-1.5c4.5-2.5,6.6-5.9,6.6-10.8c0-3.6-1.1-6.3-3.4-8.6c-3-3-7.6-4.5-13.6-4.5h-24.5V119.6z M404.9,111.7h-16.1V96.5
		h15.7c9.2,0,10.6,4.7,10.6,7.5C415.1,106.9,413.7,111.7,404.9,111.7z M391.8,108.8h13.1c7.2,0,7.2-3.6,7.2-4.8c0-1.1,0-4.6-7.6-4.6
		h-12.7V108.8z M401.6,89.2h-12.8V74.4h13.6c6,0,9.5,2.7,9.5,7.2C412,84.5,410.6,89.2,401.6,89.2z M391.8,86.3h9.9
		c7.4,0,7.4-3.3,7.4-4.6c0-3.5-3.6-4.3-6.6-4.3h-10.7L391.8,86.3L391.8,86.3z"/>
	<path class="st1" d="M481.5,122.7h-43.1V63.8h15.3v44.7h27.9L481.5,122.7L481.5,122.7z M441.4,119.7h37.2v-8.2h-27.9V66.8h-9.3
		L441.4,119.7L441.4,119.7z"/>
</g>
<g class="st0">
	<path class="st1" d="M421.9,122.3c-17.2,0-30.2-12.7-30.2-29.5c0-16.5,13.3-29.5,30.4-29.5c17.2,0,30.2,12.7,30.2,29.5
		C452.2,109.3,438.9,122.3,421.9,122.3z M422,66.1c-15.4,0-27.5,11.7-27.5,26.6c0,15.2,11.7,26.6,27.3,26.6
		c15.4,0,27.5-11.7,27.5-26.6C449.3,77.6,437.6,66.1,422,66.1z M422,111.3c-10,0-17.9-8.1-17.9-18.5c0-10.5,7.6-18.5,17.7-18.5
		c10,0,17.9,8.1,17.9,18.5C439.7,103.3,432.1,111.3,422,111.3z M421.9,77.2c-8.5,0-14.8,6.7-14.8,15.6s6.5,15.6,15,15.6
		s14.8-6.7,14.8-15.6S430.4,77.2,421.9,77.2z"/>
</g>
<g class="st0">
	<path class="st1" d="M415.8,122.3h-15.3v-59h24.4c13.9,0,22.9,8.2,22.9,21c0,12.9-9.5,21.2-24.1,21.2h-7.9V122.3z M403.5,119.3h9.4
		v-16.8h10.8c12.9,0,21.2-7.1,21.2-18.2s-7.7-18.1-20-18.1h-21.4V119.3z M424.1,94.5h-11.2V74.4h11c7.2,0,11.5,3.7,11.5,10
		C435.3,90.4,430.8,94.5,424.1,94.5z M415.8,91.5h8.3c5,0,8.3-2.8,8.3-7.2c0-6.1-5.3-7-8.5-7h-8L415.8,91.5L415.8,91.5z"/>
</g>
<path class="st0" d="M393,109.9l33,19c0.8,0.5,1.8,0.2,2.3-0.6l23.3-40.4c0.2-0.4,0.3-0.8,0.2-1.2l-3.9-15.9c-0.1-0.4-0.4-0.8-0.8-1
	l-23.2-13.4c-0.8-0.5-1.8-0.2-2.3,0.6l-29.2,50.6C391.9,108.4,392.2,109.4,393,109.9z M426,123.7l-28.7-16.6l26.3-45.6l20.2,11.6
	l3.4,13.9L426,123.7z"/>
<g class="st0">
	<polyline class="st8" points="420,126.6 437.6,109.5 420.6,91.9 420.6,91.6 420.6,91.2 438.2,74.2 421.2,56.6 	"/>
	<polyline class="st8" points="438.2,74.2 420.6,91.2 420.3,91.5 402.6,108.6 	"/>
	<polyline class="st8" points="403.2,73.9 420.3,91.5 420.6,91.9 437.6,109.5 	"/>
	<polyline class="st8" points="420,126.6 420.6,91.9 420.6,91.6 420.6,91.2 421.2,56.6 	"/>
</g>
<path class="st9" d="M456.6,94.3c0.2-0.2,0.3-0.5,0.3-0.8s-0.1-0.6-0.3-0.8l-33.9-33.9c-0.2-0.2-0.5-0.3-0.8-0.3s-0.6,0.1-0.8,0.3
	l-33.9,33.9c-0.2,0.2-0.3,0.5-0.3,0.8s0.1,0.6,0.3,0.8l33.9,33.9c0.4,0.4,1.1,0.4,1.5,0L456.6,94.3z M421.5,125.6l-32-32l0.4-0.4
	l32-32l0.4,0.4l32,32l-0.4,0.4l-32,32L421.5,125.6z"/>
<g class="st0">
	<g class="st1">
		<path class="st10" d="M441.9,126.6H402c-3.6,0-6.6-3-6.6-6.6V80.8c0-0.6,0.5-1.1,1.1-1.1s1.1,0.5,1.1,1.1V120c0,2.5,2,4.5,4.5,4.5
			H442c2.5,0,4.5-2,4.5-4.5V81.1c0-0.6,0.5-1.1,1.1-1.1s1.1,0.5,1.1,1.1V120C448.5,123.6,445.5,126.6,441.9,126.6z"/>
		<path class="st10" d="M450.4,77.4h-56.9c-0.6,0-1.1-0.5-1.1-1.1v-6.6c0-2.8,2.3-5.1,5.1-5.1h48.8c2.8,0,5.1,2.3,5.1,5.1v6.6
			C451.5,77,451,77.4,450.4,77.4z M394.5,75.3h54.8v-5.5c0-1.7-1.4-3-3-3h-48.8c-1.7,0-3,1.4-3,3V75.3z"/>
		<path class="st10" d="M412.9,66.8c-0.6,0-1.1-0.5-1.1-1.1v-4.1c0-2.8,2.3-5.1,5.1-5.1h9.9c2.8,0,5.1,2.3,5.1,5.1v3.9
			c0,0.6-0.5,1.1-1.1,1.1s-1.1-0.5-1.1-1.1v-3.9c0-1.7-1.4-3-3-3H417c-1.7,0-3,1.4-3,3v4.1C414,66.3,413.5,66.8,412.9,66.8z"/>
	</g>
	<path class="st11" d="M416.3,118.8c-0.1,0-0.3,0-0.4-0.1c-0.2-0.1-0.6-0.5-0.4-1.3l3.3-12.6h-6.9c-0.5,0-1-0.3-1.2-0.7
		c-0.2-0.5-0.1-1,0.3-1.4l15.5-18.4c0.6-0.7,1.1-0.6,1.4-0.4c0.2,0.1,0.6,0.5,0.3,1.3L425,97.6h6.8c0.8,0,1.1,0.5,1.2,0.7
		c0.2,0.4,0.1,0.9-0.2,1.3l-15.6,18.7C416.9,118.6,416.6,118.8,416.3,118.8z M412.9,103.1h6.3c0.6,0,1,0.2,1.2,0.5
		c0.1,0.2,0.3,0.6,0.1,1.1l-2.6,9.9l12.8-15.3h-6.2c-0.5,0-1-0.2-1.2-0.6s-0.3-0.8-0.1-1.2l2.5-9.6L412.9,103.1z M419.3,104.8
		L419.3,104.8L419.3,104.8z M419,104.2L419,104.2L419,104.2L419,104.2z M412.3,103.8L412.3,103.8L412.3,103.8z"/>
</g>
<path class="st12" d="M55.3,328.9V57.3c0-2.2,1.8-4,4-4h269.6"/>
<path class="st12" d="M454,183.1v268.1c0,2.2-1.8,4-4,4H183.1"/>
<path class="st13" d="M367.6,183.1v13.7c-3,0.6-5.3,3.3-5.3,6.5s2.3,5.9,5.3,6.5v21.5c-3,0.6-5.3,3.3-5.3,6.5s2.3,5.9,5.3,6.5v21.5
	c-3,0.6-5.3,3.3-5.3,6.5s2.3,5.9,5.3,6.5v21.5c-3,0.6-5.3,3.3-5.3,6.5s2.3,5.9,5.3,6.5V335c-3,0.6-5.3,3.3-5.3,6.5s2.3,5.9,5.3,6.5
	v21.5c-3,0.6-5.3,3.3-5.3,6.5s2.3,5.9,5.3,6.5V404c-3,0.6-5.3,3.3-5.3,6.5s2.3,5.9,5.3,6.5v29.4H183.1"/>
<path class="st13" d="M155,328.9v-15.4c0.4,0.1,0.9,0.1,1.3,0.1c3.7,0,6.6-3,6.6-6.6c0-3.7-3-6.6-6.6-6.6c-0.5,0-0.9,0-1.3,0.1V279
	c0.4,0.1,0.9,0.1,1.3,0.1c3.7,0,6.6-3,6.6-6.6c0-3.7-3-6.6-6.6-6.6c-0.5,0-0.9,0.1-1.3,0.1v-21.5c0.4,0.1,0.9,0.1,1.3,0.1
	c3.7,0,6.6-3,6.6-6.6c0-3.7-3-6.6-6.6-6.6c-0.5,0-0.9,0-1.3,0.1V210c0.4,0.1,0.9,0.1,1.3,0.1c3.7,0,6.6-3,6.6-6.6
	c0-3.7-3-6.6-6.6-6.6c-0.5,0-0.9,0-1.3,0.1v-21.5c0.4,0.1,0.9,0.1,1.3,0.1c3.7,0,6.6-3,6.6-6.6s-3-6.6-6.6-6.6
	c-0.5,0-0.9,0.1-1.3,0.1V141c0.4,0.1,0.9,0.1,1.3,0.1c3.7,0,6.6-3,6.6-6.7s-3-6.6-6.6-6.6c-0.5,0-0.9,0-1.3,0.1v-21.5
	c0.4,0.1,0.9,0.1,1.3,0.1c3.7,0,6.6-3,6.6-6.6s-3-6.7-6.6-6.7c-0.5,0-0.9,0.1-1.3,0.1V66.5h29.4c0.6,3,3.3,5.3,6.5,5.3
	s5.9-2.3,6.5-5.3h131.5"/>
<g class="st0">
	<path class="st1" d="M230.6,252.8h-8.7v-18.9l-7.7,11.7h-0.9l-0.4-0.4l-7.4-11.2v18.8h-8.6v-33.7h8.9l7.9,12.8l7.9-12.8h8.9
		L230.6,252.8z M223.6,251.1h5.3v-30.3h-6.3l-8.9,14.3l-8.9-14.3h-6.3v30.3h5.2v-22.7l9.9,15l9.9-15.1L223.6,251.1z"/>
</g>
<g class="st0">
	<path class="st1" d="M291.2,253.1h-8.6v-24.7l-5.3,1.3l-1.9-7.3l10.1-3h5.6L291.2,253.1L291.2,253.1z M284.3,251.4h5.2v-30.3h-3.8
		l-8.2,2.5l1,4.1l5.8-1.4V251.4z"/>
</g>
<g class="st0">
	<path class="st1" d="M255.4,253.6c-4.8,0-8.9-1.6-12.4-5l-0.6-0.5l5.2-6.3l0.6,0.6c2.4,2.2,4.6,3.2,7,3.2c1.7,0,4.4-0.5,4.4-3.6
		c0-2.5-2.5-3.4-4.7-3.4c-1.6,0-3.2,0.4-4.9,1.1l-0.4,0.2l-4.8-3.2l1-16.8h21v7.7h-13.5l-0.2,3.5c0.9-0.2,1.9-0.3,3.2-0.3
		c7.4,0,11.9,4.1,11.9,11C268.2,249,263.1,253.6,255.4,253.6z M244.7,248c3.1,2.7,6.5,4,10.6,4c6.9,0,11.1-3.9,11.1-10.1
		c0-8.1-6.4-9.3-10.2-9.3c-1.7,0-2.8,0.2-3.9,0.5l-1.1,0.3l0.5-7.4h13.4v-4.4h-17.7l-0.8,14.3l3.2,2.1c1.8-0.7,3.5-1.1,5.2-1.1
		c3.9,0,6.4,2,6.4,5.1c0,3.3-2.3,5.3-6.1,5.3c-2.6,0-4.9-1-7.4-3.1L244.7,248z"/>
</g>
<g class="st0">
	<path class="st1" d="M311.2,252.3c-4.2,0-7.5-1.2-10.7-3.9l-0.6-0.5l4.5-6.5l0.7,0.6c2.2,1.8,4,2.5,6.3,2.5c3.2,0,4.6-2.3,5.1-4.5
		c-1.5,0.8-3.2,1.2-5.1,1.2c-7.3,0-11.9-4.2-11.9-10.9c0-6.8,5.3-11.7,12.6-11.7c4.3,0,6.9,1,9.5,3.6c2.7,2.7,3.9,6.6,3.9,12.4
		C325.6,245.5,320.1,252.3,311.2,252.3z M302.2,247.6c2.7,2.1,5.6,3,9.1,3c8,0,12.7-6,12.7-16.1c0-5.3-1.1-8.9-3.4-11.2
		s-4.5-3.1-8.4-3.1c-6.5,0-11,4.1-11,10c0,5.8,3.8,9.3,10.3,9.3c2.3,0,4.3-0.6,5.8-1.9l1.6-1.3l-0.2,2c-0.5,4.9-3.1,7.8-7.1,7.8
		c-2.4,0-4.4-0.7-6.6-2.3L302.2,247.6z M312.5,235.5c-3.7,0-6.2-2.2-6.2-5.5c0-3.4,2.4-5.6,6.1-5.6s6.3,2.2,6.3,5.6
		C318.7,233.3,316.2,235.5,312.5,235.5z M312.4,226.1c-2.8,0-4.4,1.5-4.4,4c0,2.4,1.8,3.8,4.6,3.8c2.8,0,4.5-1.5,4.5-3.9
		C317,227.6,315.2,226.1,312.4,226.1z"/>
</g>
<path class="st13" d="M155.9,417.9c3.7,0,6.7-3,6.7-6.7s-3-6.7-6.7-6.7c-0.5,0-0.9,0-1.3,0.1V383c0.4,0.1,0.9,0.1,1.3,0.1
	c3.7,0,6.7-3,6.7-6.7s-3-6.7-6.7-6.7c-0.5,0-0.9,0-1.3,0.1v-21.7c0.4,0.1,0.9,0.1,1.3,0.1c3.7,0,6.7-3,6.7-6.7s-3-6.7-6.7-6.7
	c-0.5,0-0.9,0-1.3,0.1v-21.7c0.4,0.1,0.9,0.1,1.3,0.1c3.7,0,6.7-3,6.7-6.7s-3-6.7-6.7-6.7c-0.5,0-0.9,0-1.3,0.1v-21.7
	c0.4,0.1,0.9,0.1,1.3,0.1c3.7,0,6.7-3,6.7-6.7s-3-6.7-6.7-6.7c-0.5,0-0.9,0-1.3,0.1v-21.7c0.4,0.1,0.9,0.1,1.3,0.1
	c3.7,0,6.7-3,6.7-6.7s-3-6.7-6.7-6.7c-0.5,0-0.9,0-1.3,0.1V209c0.4,0.1,0.9,0.1,1.3,0.1c3.7,0,6.7-3,6.7-6.7s-3-6.7-6.7-6.7
	c-0.5,0-0.9,0-1.3,0.1v-21.7c0.4,0.1,0.9,0.1,1.3,0.1c3.7,0,6.7-3,6.7-6.7s-3-6.7-6.7-6.7c-0.5,0-0.9,0-1.3,0.1v-21.7
	c0.4,0.1,0.9,0.1,1.3,0.1c3.7,0,6.7-3,6.7-6.7s-3-6.7-6.7-6.7c-0.5,0-0.9,0-1.3,0.1v-21.7c0.4,0.1,0.9,0.1,1.3,0.1
	c3.7,0,6.7-3,6.7-6.7s-3-6.7-6.7-6.7c-0.5,0-0.9,0-1.3,0.1V64.7h29.6c0.6,3.1,3.3,5.4,6.6,5.4c3.2,0,5.9-2.3,6.6-5.4h171.4v26.9
	c-3.1,0.6-5.4,3.3-5.4,6.6c0,3.2,2.3,5.9,5.4,6.6v21.7c-3.1,0.6-5.4,3.3-5.4,6.6c0,3.2,2.3,5.9,5.4,6.6v21.7
	c-3.1,0.6-5.4,3.3-5.4,6.6c0,3.2,2.3,5.9,5.4,6.6v21.7c-3.1,0.6-5.4,3.3-5.4,6.6c0,3.2,2.3,5.9,5.4,6.6v21.7
	c-3.1,0.6-5.4,3.3-5.4,6.6c0,3.2,2.3,5.9,5.4,6.6v21.7c-3.1,0.6-5.4,3.3-5.4,6.6c0,3.2,2.3,5.9,5.4,6.6V301
	c-3.1,0.6-5.4,3.3-5.4,6.6c0,3.2,2.3,5.9,5.4,6.6v21.7c-3.1,0.6-5.4,3.3-5.4,6.6c0,3.2,2.3,5.9,5.4,6.6v21.7
	c-3.1,0.6-5.4,3.3-5.4,6.6c0,3.2,2.3,5.9,5.4,6.6v21.7c-3.1,0.6-5.4,3.3-5.4,6.6c0,3.2,2.3,5.9,5.4,6.6v29.6H154.6v-29.6
	C155,417.9,155.4,417.9,155.9,417.9z"/>
<g class="st0">
	<path class="st1" d="M255.3,53.2C145.1,53.2,55.5,142.8,55.5,253s89.6,199.8,199.8,199.8S455.1,363.2,455.1,253
		S365.5,53.2,255.3,53.2z M255.3,437.6c-101.8,0-184.6-82.8-184.6-184.6S153.5,68.4,255.3,68.4S439.9,151.2,439.9,253
		S357.1,437.6,255.3,437.6z"/>
</g>
<path class="st14" d="M443.4,452.9H67.2c-4.9,0-9-4-9-9V67.8c0-4.9,4-9,9-9h376.1c4.9,0,9,4,9,9V444
	C452.3,448.9,448.3,452.9,443.4,452.9z"/>
</svg>
